<svg xmlns="http://www.w3.org/2000/svg" width="12.257" height="14.013" viewBox="0 0 12.257 14.013">
  <path id="calendar_white_" data-name="calendar(white)" d="M0,12.7a1.314,1.314,0,0,0,1.313,1.313h9.631A1.314,1.314,0,0,0,12.257,12.7V5.253H0ZM1.751,7.332A.329.329,0,0,1,2.079,7h8.1a.329.329,0,0,1,.328.328v1.1a.329.329,0,0,1-.328.328h-8.1a.329.329,0,0,1-.328-.328Zm0,3.5a.329.329,0,0,1,.328-.328H6.607a.329.329,0,0,1,.328.328v1.094a.329.329,0,0,1-.328.328H2.079a.329.329,0,0,1-.328-.328Zm9.193-9.084H9.631V.438A.439.439,0,0,0,9.193,0H8.317A.439.439,0,0,0,7.88.438V1.751H4.38V.438A.439.439,0,0,0,3.94,0H3.064a.439.439,0,0,0-.438.438V1.751H1.313A1.314,1.314,0,0,0,0,3.064V4.378H12.257V3.064a1.314,1.314,0,0,0-1.313-1.313Z" fill="#fff"/>
</svg>
