<svg xmlns="http://www.w3.org/2000/svg" width="15.278" height="13.368" viewBox="0 0 15.278 13.368">
  <defs>
    <style>
      .cls-1 {
        fill: #50569e;
      }
    </style>
  </defs>
  <path id="Icon_awesome-comment" data-name="Icon awesome-comment" class="cls-1" d="M7.639,2.25C3.42,2.25,0,5.028,0,8.456a5.509,5.509,0,0,0,1.7,3.9A7.591,7.591,0,0,1,.066,15.215a.237.237,0,0,0-.045.26.234.234,0,0,0,.218.143,6.824,6.824,0,0,0,4.2-1.534,9.1,9.1,0,0,0,3.2.579c4.219,0,7.639-2.778,7.639-6.206S11.858,2.25,7.639,2.25Z" transform="translate(0 -2.25)"/>
</svg>
