<svg xmlns="http://www.w3.org/2000/svg" width="16.716" height="22.287" viewBox="0 0 16.716 22.287">
  <defs>
    <style>
      .cls-1 {
        fill: #ff6d64;
        opacity: 1;
      }
    </style>
  </defs>
  <path id="Icon_awesome-file-upload" data-name="Icon awesome-file-upload" class="cls-1" d="M9.751,5.92V0H1.045A1.042,1.042,0,0,0,0,1.045v20.2a1.042,1.042,0,0,0,1.045,1.045H15.671a1.042,1.042,0,0,0,1.045-1.045V6.965H10.8A1.048,1.048,0,0,1,9.751,5.92Zm2.837,9.4H9.751v3.482a.7.7,0,0,1-.7.7H7.661a.7.7,0,0,1-.7-.7V15.323H4.128a.7.7,0,0,1-.491-1.191l4.2-4.166a.742.742,0,0,1,1.046,0l4.2,4.166A.7.7,0,0,1,12.588,15.323ZM16.411,4.571,12.149.3a1.044,1.044,0,0,0-.74-.3h-.266V5.572h5.572V5.306A1.041,1.041,0,0,0,16.411,4.571Z"/>
</svg>
