<svg xmlns="http://www.w3.org/2000/svg" width="23.716" height="17.787" viewBox="0 0 23.716 17.787">
  <defs>
    <style>
      .cls-1 {
        fill: #ff6d64;
        opacity: 1;
      }
    </style>
  </defs>
  <path id="Icon_awesome-image" data-name="Icon awesome-image" class="cls-1" d="M21.493,22.287H2.223A2.223,2.223,0,0,1,0,20.064V6.723A2.223,2.223,0,0,1,2.223,4.5h19.27a2.223,2.223,0,0,1,2.223,2.223v13.34A2.223,2.223,0,0,1,21.493,22.287ZM5.188,7.094A2.594,2.594,0,1,0,7.782,9.688,2.594,2.594,0,0,0,5.188,7.094ZM2.965,19.323H20.752V14.135L16.7,10.081a.556.556,0,0,0-.786,0L9.635,16.358,7.063,13.787a.556.556,0,0,0-.786,0L2.965,17.1Z" transform="translate(0 -4.5)"/>
</svg>
