<svg xmlns="http://www.w3.org/2000/svg" width="14.494" height="17.129" viewBox="0 0 14.494 17.129"><path d="M12.913,6.359a5.952,5.952,0,0,1,.985.184,4.2,4.2,0,0,1,3.2,4.111v5.254l.384.386.321.322H7.943l.321-.322.384-.386V10.655a4.2,4.2,0,0,1,3.2-4.111,7.289,7.289,0,0,1,.985-.184m.041-2.984A1.259,1.259,0,0,0,11.593,4.66v.6a5.551,5.551,0,0,0-4.263,5.4v4.71L5.625,17.078v.856H20.119v-.856l-1.705-1.713v-4.71a5.551,5.551,0,0,0-4.263-5.4v-.6a1.259,1.259,0,0,0-1.279-1.285Zm1.705,15.416h-3.41a1.705,1.705,0,1,0,3.41,0Z" transform="translate(-5.625 -3.375)" fill="#50569e"/></svg>