<svg xmlns="http://www.w3.org/2000/svg" width="19" height="21.714" viewBox="0 0 19 21.714"><path d="M0,19.679a2.036,2.036,0,0,0,2.036,2.036H16.964A2.036,2.036,0,0,0,19,19.679V8.143H0Zm13.571-8.313a.51.51,0,0,1,.509-.509h1.7a.51.51,0,0,1,.509.509v1.7a.51.51,0,0,1-.509.509h-1.7a.51.51,0,0,1-.509-.509Zm0,5.429a.51.51,0,0,1,.509-.509h1.7a.51.51,0,0,1,.509.509v1.7a.51.51,0,0,1-.509.509h-1.7a.51.51,0,0,1-.509-.509ZM8.143,11.366a.51.51,0,0,1,.509-.509h1.7a.51.51,0,0,1,.509.509v1.7a.51.51,0,0,1-.509.509h-1.7a.51.51,0,0,1-.509-.509Zm0,5.429a.51.51,0,0,1,.509-.509h1.7a.51.51,0,0,1,.509.509v1.7a.51.51,0,0,1-.509.509h-1.7a.51.51,0,0,1-.509-.509ZM2.714,11.366a.51.51,0,0,1,.509-.509h1.7a.51.51,0,0,1,.509.509v1.7a.51.51,0,0,1-.509.509h-1.7a.51.51,0,0,1-.509-.509Zm0,5.429a.51.51,0,0,1,.509-.509h1.7a.51.51,0,0,1,.509.509v1.7A.51.51,0,0,1,4.92,19h-1.7a.51.51,0,0,1-.509-.509Zm14.25-14.08H14.929V.679A.681.681,0,0,0,14.25,0H12.893a.681.681,0,0,0-.679.679V2.714H6.786V.679A.681.681,0,0,0,6.107,0H4.75a.681.681,0,0,0-.679.679V2.714H2.036A2.036,2.036,0,0,0,0,4.75V6.786H19V4.75A2.036,2.036,0,0,0,16.964,2.714Z" transform="translate(0 0)" fill="#50569e"/></svg>