<svg xmlns="http://www.w3.org/2000/svg" width="9.5" height="9.5" viewBox="0 0 9.5 9.5">
  <defs>
    <style>
      .cls-1 {
        fill: #50569e;
      }
    </style>
  </defs>
  <path id="Icon_open-magnifying-glass" data-name="Icon open-magnifying-glass" class="cls-1" d="M4.119-.033a4.119,4.119,0,1,0,0,8.238,4.071,4.071,0,0,0,1.954-.483,1.177,1.177,0,0,0,.153.153L7.4,9.052A1.2,1.2,0,1,0,9.1,7.357L7.92,6.181a1.177,1.177,0,0,0-.188-.153A4.064,4.064,0,0,0,8.25,4.074,4.123,4.123,0,0,0,4.131-.045Zm0,1.177A2.928,2.928,0,0,1,7.061,4.086,2.951,2.951,0,0,1,6.284,6.11l-.035.035A1.177,1.177,0,0,0,6.1,6.3a2.945,2.945,0,0,1-1.989.741,2.942,2.942,0,0,1,0-5.884Z" transform="translate(0 0.045)"/>
</svg>
