<svg xmlns="http://www.w3.org/2000/svg" width="158" height="161.435" viewBox="0 0 158 161.435"><g transform="translate(-6236 4958)"><g transform="translate(6236 -4958)" fill="none" stroke="#ffee7d" stroke-width="20"><ellipse cx="69.5" cy="68.5" rx="69.5" ry="68.5" stroke="none"/><ellipse cx="69.5" cy="68.5" rx="59.5" ry="58.5" fill="none"/></g><g transform="translate(6284.087 -4907.623)" fill="#ffa367"><path d="M 54.95652008056641 108.5579681396484 C 47.87705230712891 108.5579681396484 41.01045227050781 107.157470703125 34.54742050170898 104.3953704833984 C 28.30191993713379 101.7262191772461 22.69191932678223 97.90415191650391 17.87330436706543 93.03531646728516 C 13.05288696289063 88.16470336914063 9.268369674682617 82.49310302734375 6.624853610992432 76.17803192138672 C 3.887803316116333 69.63950347900391 2.500003337860107 62.6921501159668 2.500003337860107 55.52898406982422 C 2.500003337860107 48.36581802368164 3.887803316116333 41.4184684753418 6.624853610992432 34.87993240356445 C 9.268369674682617 28.56486701965332 13.05288696289063 22.89326667785645 17.87330436706543 18.02265167236328 C 22.69191932678223 13.15381717681885 28.30191993713379 9.331750869750977 34.54742050170898 6.662600517272949 C 41.01045227050781 3.900500774383545 47.87705230712891 2.500000715255737 54.95652008056641 2.500000715255737 C 62.03598785400391 2.500000715255737 68.902587890625 3.900500774383545 75.36562347412109 6.662600517272949 C 81.61112213134766 9.331750869750977 87.22112274169922 13.15381717681885 92.03973388671875 18.02265167236328 C 96.86015319824219 22.89326667785645 100.6446685791016 28.56486701965332 103.2881851196289 34.87993240356445 C 106.0252380371094 41.4184684753418 107.4130401611328 48.36581802368164 107.4130401611328 55.52898406982422 C 107.4130401611328 62.6921501159668 106.0252380371094 69.63950347900391 103.2881851196289 76.17803192138672 C 100.6446685791016 82.49310302734375 96.86015319824219 88.16470336914063 92.03973388671875 93.03531646728516 C 87.22112274169922 97.90415191650391 81.61112213134766 101.7262191772461 75.36562347412109 104.3953704833984 C 68.902587890625 107.157470703125 62.03598785400391 108.5579681396484 54.95652008056641 108.5579681396484 Z" stroke="none"/><path d="M 54.95652008056641 5.000007629394531 C 48.21667861938477 5.000007629394531 41.68061828613281 6.33282470703125 35.52989959716797 8.961463928222656 C 29.58306121826172 11.50296783447266 24.2403564453125 15.14326477050781 19.65019989013672 19.78124237060547 C 15.05650329589844 24.42278289794922 11.45001983642578 29.82752227783203 8.930961608886719 35.84528350830078 C 6.322563171386719 42.07646179199219 5 48.69902420043945 5 55.52898406982422 C 5 62.35894393920898 6.322563171386719 68.98150634765625 8.930961608886719 75.21268463134766 C 11.45001983642578 81.23046875 15.05650329589844 86.63518524169922 19.65019989013672 91.27674865722656 C 24.2403564453125 95.91470336914063 29.58306121826172 99.55500793457031 35.52989959716797 102.0965042114258 C 41.68061828613281 104.7251434326172 48.21667861938477 106.0579605102539 54.95652008056641 106.0579605102539 C 61.69636154174805 106.0579605102539 68.232421875 104.7251434326172 74.38314056396484 102.0965042114258 C 80.32997894287109 99.55500793457031 85.67268371582031 95.91470336914063 90.26284027099609 91.27674865722656 C 94.85653686523438 86.63518524169922 98.46302032470703 81.23046875 100.9820785522461 75.21268463134766 C 103.5904769897461 68.98150634765625 104.9130401611328 62.35894393920898 104.9130401611328 55.52898406982422 C 104.9130401611328 48.69902420043945 103.5904769897461 42.07646179199219 100.9820785522461 35.84528350830078 C 98.46302032470703 29.82752227783203 94.85653686523438 24.42278289794922 90.26284027099609 19.78124237060547 C 85.67268371582031 15.14326477050781 80.32997894287109 11.50296783447266 74.38314056396484 8.961463928222656 C 68.232421875 6.33282470703125 61.69636154174805 5.000007629394531 54.95652008056641 5.000007629394531 M 54.95652008056641 7.62939453125e-06 C 85.30815887451172 7.62939453125e-06 109.9130401611328 24.86118316650391 109.9130401611328 55.52898406982422 C 109.9130401611328 86.19680786132813 85.30815887451172 111.0579605102539 54.95652008056641 111.0579605102539 C 24.60488128662109 111.0579605102539 0 86.19680786132813 0 55.52898406982422 C 0 24.86118316650391 24.60488128662109 7.62939453125e-06 54.95652008056641 7.62939453125e-06 Z" stroke="none" fill="#fff"/></g></g></svg>