<svg xmlns="http://www.w3.org/2000/svg" width="261.088" height="168.923" viewBox="0 0 261.088 168.923">
  <g id="Group_281" data-name="Group 281" transform="translate(0 0.464)">
    <g id="Group_247" data-name="Group 247" transform="translate(0 0)">
      <g id="Group_243" data-name="Group 243" transform="translate(193.947)">
        <g id="Group_242" data-name="Group 242" transform="translate(0 21.034)">
          <rect id="Rectangle_145" data-name="Rectangle 145" width="66.792" height="6.13" fill="none" stroke="#d1d7db" stroke-miterlimit="10" stroke-width="0.698"/>
        </g>
        <rect id="Rectangle_146" data-name="Rectangle 146" width="11.083" height="10.437" transform="translate(43.016 10.597)" fill="none" stroke="#d1d7db" stroke-miterlimit="10" stroke-width="0.698"/>
        <rect id="Rectangle_147" data-name="Rectangle 147" width="6.302" height="19.89" transform="translate(31.498 1.144)" fill="none" stroke="#d1d7db" stroke-miterlimit="10" stroke-width="0.698"/>
        <rect id="Rectangle_148" data-name="Rectangle 148" width="6.302" height="19.89" transform="translate(25.196 1.144)" fill="none" stroke="#d1d7db" stroke-miterlimit="10" stroke-width="0.698"/>
        <rect id="Rectangle_149" data-name="Rectangle 149" width="6.301" height="19.89" transform="matrix(-0.905, -0.425, 0.425, -0.905, 16.487, 20.684)" fill="none" stroke="#d1d7db" stroke-miterlimit="10" stroke-width="0.698"/>
      </g>
      <g id="Group_246" data-name="Group 246" transform="translate(0 1.193)">
        <g id="Group_244" data-name="Group 244" transform="translate(0)">
          <path id="Path_172" data-name="Path 172" d="M622.7,56.026l6.123-5.854,20.464,20.879-6.6,6.249Z" transform="translate(-618.842 -46.449)" fill="#d1d7db"/>
          <ellipse id="Ellipse_60" data-name="Ellipse 60" cx="14.634" cy="14.634" rx="14.634" ry="14.634" transform="translate(0 4.843)" fill="#d1d7db"/>
          <ellipse id="Ellipse_61" data-name="Ellipse 61" cx="14.635" cy="14.635" rx="14.635" ry="14.635" transform="translate(5.095)" fill="#fffffd"/>
        </g>
        <g id="Group_245" data-name="Group 245" transform="translate(10.338 8.706)">
          <line id="Line_66" data-name="Line 66" x2="9.267" y2="5.929" transform="translate(0)" fill="none" stroke="#fe5d5d" stroke-miterlimit="10" stroke-width="0.756"/>
          <ellipse id="Ellipse_62" data-name="Ellipse 62" cx="2.077" cy="2.077" rx="2.077" ry="2.077" transform="translate(7.48 3.852)" fill="#d1d7db"/>
          <line id="Line_67" data-name="Line 67" x1="4.717" y2="4.479" transform="translate(9.948 1.45)" fill="none" stroke="#d1d7db" stroke-miterlimit="10" stroke-width="0.756"/>
        </g>
      </g>
    </g>
    <g id="Group_280" data-name="Group 280" transform="translate(0.441 7.815)">
      <g id="Group_271" data-name="Group 271" transform="translate(73.651)">
        <g id="Group_249" data-name="Group 249" transform="translate(52.274 37.742)">
          <g id="Group_248" data-name="Group 248" transform="translate(5.426 70.672)">
            <line id="Line_68" data-name="Line 68" x1="32.685" y2="51.608" transform="translate(0)" fill="none" stroke="#213033" stroke-miterlimit="10" stroke-width="1.038"/>
            <line id="Line_69" data-name="Line 69" x2="29.967" y2="51.712" transform="translate(4.207)" fill="none" stroke="#213033" stroke-miterlimit="10" stroke-width="1.038"/>
          </g>
          <path id="Path_173" data-name="Path 173" d="M465.725,165.786s5.2,4.787,25.86,2.709,33.676-12.784,34.734-36.756a67.581,67.581,0,0,0-11.869-40.824l-49.778,52.207Z" transform="translate(-464.671 -90.915)" fill="#fffffd"/>
        </g>
        <g id="Group_270" data-name="Group 270" transform="translate(0)">
          <path id="Path_174" data-name="Path 174" d="M491.018,76.774s9.223-4.077,11,4.264c0,0,6.845-1.141,10.346,6.666,4.809,10.722-7.575,15.805-7.575,15.805l-35.241-1.494S459.7,89.291,471.33,84.381c0,0-.185-7.892,7.63-6.251Z" transform="translate(-400.473 -53.135)" fill="#fe5d5d"/>
          <g id="Group_258" data-name="Group 258" transform="translate(0 83.525)">
            <g id="Group_253" data-name="Group 253" transform="translate(0 1.956)">
              <g id="Group_252" data-name="Group 252" transform="translate(0 51.168)">
                <g id="Group_250" data-name="Group 250" transform="translate(14.639)">
                  <path id="Path_175" data-name="Path 175" d="M551.228,205.932l8.758-.037,4.247-13.929-8.168-1.894Z" transform="translate(-551.228 -190.072)" fill="#ffc9bd"/>
                </g>
                <g id="Group_251" data-name="Group 251" transform="translate(0 13.191)">
                  <path id="Path_176" data-name="Path 176" d="M576.463,204.118c-2.061.55-6.725,2.349-8.913-.822l-14.789,8.014,26.107-.172-1.217-6.235A.953.953,0,0,0,576.463,204.118Z" transform="translate(-552.753 -203.296)" fill="#090b0c"/>
                  <rect id="Rectangle_150" data-name="Rectangle 150" width="26.108" height="2.262" transform="matrix(-1, 0.007, -0.007, -1, 26.122, 10.117)" fill="#fff"/>
                </g>
              </g>
              <path id="Path_177" data-name="Path 177" d="M566.057,138.775l-16.562,5.6a14.439,14.439,0,0,0-9.126,9.276l-14.889,43.4,15.684,1.857,17.2-42.438Z" transform="translate(-512.73 -138.775)" fill="#2d3f96"/>
            </g>
            <g id="Group_257" data-name="Group 257" transform="translate(37.574)">
              <g id="Group_256" data-name="Group 256" transform="translate(5.723 55.036)">
                <g id="Group_254" data-name="Group 254" transform="translate(10.859)">
                  <path id="Path_178" data-name="Path 178" d="M515.857,205.919l8.757-.037-4.547-13.893-8.757.038Z" transform="translate(-511.311 -191.989)" fill="#ffc9bd"/>
                </g>
                <g id="Group_255" data-name="Group 255" transform="translate(0 11.279)">
                  <path id="Path_179" data-name="Path 179" d="M533.056,204.118c-2.06.55-6.724,2.349-8.913-.822l-14.789,8.014,26.107-.172-1.217-6.235A.953.953,0,0,0,533.056,204.118Z" transform="translate(-509.348 -203.296)" fill="#090b0c"/>
                  <rect id="Rectangle_151" data-name="Rectangle 151" width="26.108" height="2.262" transform="matrix(-1, 0.007, -0.007, -1, 26.122, 10.116)" fill="#fff"/>
                </g>
              </g>
              <path id="Path_180" data-name="Path 180" d="M539.493,136.814s6.306,15.378-5.872,20.4c0,0-9.3,2.957-32.24,1.7l11.967,37.886-14.617,1.606-15.15-40.8a10.645,10.645,0,0,1,4.722-12.96l13.806-7.839Z" transform="translate(-482.915 -136.814)" fill="#4151b3"/>
            </g>
          </g>
          <g id="Group_264" data-name="Group 264" transform="translate(19.716 36.744)">
            <g id="Group_260" data-name="Group 260" transform="translate(0 3.209)">
              <path id="Path_181" data-name="Path 181" d="M515.946,93.132s-4.022.036-5.765,6.036-6.568,20.432-6.568,20.432l11.852,9.073,1.814-17.77Z" transform="translate(-461.854 -93.132)" fill="#c1ccff"/>
              <g id="Group_259" data-name="Group 259" transform="translate(0 26.468)">
                <path id="Path_182" data-name="Path 182" d="M557.98,128.012H547.8a8.016,8.016,0,0,0-5.082,1.817l-3.245,2.66,1.693,1.168h17.964Z" transform="translate(-539.47 -119.688)" fill="#ffc9bd"/>
                <path id="Path_183" data-name="Path 183" d="M532.382,119.667l-24.742,5.486.742,7.051h32.907l.742-11.342Z" transform="translate(-490.625 -119.667)" fill="#c1ccff"/>
              </g>
            </g>
            <g id="Group_261" data-name="Group 261" transform="translate(48.98)">
              <path id="Path_184" data-name="Path 184" d="M498.546,89.915l11.447,4.065-5.13,39.582H481.6l-1.089-18.467s-1.458-1.754-1.757-6.432A19.916,19.916,0,0,1,481.965,96.2l1.85-3.077,8.861-2.674Z" transform="translate(-478.705 -89.915)" fill="#c1ccff"/>
              <path id="Path_185" data-name="Path 185" d="M509.716,101.455a16.892,16.892,0,0,0-1.08,15.663l.377,7.387" transform="translate(-506.828 -89.944)" fill="none" stroke="#98abed" stroke-miterlimit="10" stroke-width="0.75"/>
            </g>
            <g id="Group_263" data-name="Group 263" transform="translate(29.375 4.065)">
              <path id="Path_186" data-name="Path 186" d="M485.98,93.99s5.224.416,4.693,9.566c-.353,6.112-1.273,17.45-1.845,24.306a6.229,6.229,0,0,1-6.21,5.711h-8.655l4-32.138Z" transform="translate(-435.086 -93.99)" fill="#c1ccff"/>
              <g id="Group_262" data-name="Group 262" transform="translate(0 26.807)">
                <path id="Path_187" data-name="Path 187" d="M528.531,128.012H518.348a8.016,8.016,0,0,0-5.082,1.817l-3.245,2.66,1.693,1.168h17.964Z" transform="translate(-510.021 -120.883)" fill="#ffc9bd"/>
                <path id="Path_188" data-name="Path 188" d="M512.49,120.865l-27.02,4.509.929,8.266h26.072Z" transform="translate(-468.344 -120.865)" fill="#c1ccff"/>
              </g>
              <path id="Path_189" data-name="Path 189" d="M512.493,103.58,511.113,121.3l-24.169,4.033.322,2.861" transform="translate(-469.818 -94.014)" fill="none" stroke="#98abed" stroke-miterlimit="10" stroke-width="0.75"/>
              <line id="Line_70" data-name="Line 70" y1="0.627" x2="5.565" transform="translate(40.387 26.807)" fill="none" stroke="#98abed" stroke-miterlimit="10" stroke-width="0.75"/>
            </g>
          </g>
          <g id="Group_269" data-name="Group 269" transform="translate(70.422)">
            <g id="Group_268" data-name="Group 268" transform="translate(0)">
              <g id="Group_265" data-name="Group 265" transform="translate(1.171 18.714)">
                <ellipse id="Ellipse_63" data-name="Ellipse 63" cx="3.546" cy="3.546" rx="3.546" ry="3.546" transform="translate(0)" fill="#efb2a8"/>
              </g>
              <ellipse id="Ellipse_64" data-name="Ellipse 64" cx="5.658" cy="5.658" rx="5.658" ry="5.658" transform="translate(10.701)" fill="#fe5d5d"/>
              <path id="Path_190" data-name="Path 190" d="M482.815,68.607A10.765,10.765,0,0,0,493.58,79.372c5.945,0,11.8-3.792,11.8-9.737s-5.85-11.792-11.8-11.792A10.765,10.765,0,0,0,482.815,68.607Z" transform="translate(-479.912 -53.09)" fill="#fe5d5d"/>
              <path id="Path_191" data-name="Path 191" d="M488.329,85.017l.877,7.679c.3,2.7,2.126,3.952,4.778,3.634h0c2.264-.272,4.25-1.7,4.26-3.976l-1.961-12.018Z" transform="translate(-478.281 -53.147)" fill="#ffc9bd"/>
              <path id="Path_192" data-name="Path 192" d="M490.074,88.709c5.386-.467,8.278-7.115,8.278-7.115l-8.8,2.641Z" transform="translate(-479.605 -53.15)" fill="#dd9790"/>
              <path id="Path_193" data-name="Path 193" d="M496.3,85.7h0c-4.551.242-8.489-3.153-8.811-6.862l-.708-8.756a8.65,8.65,0,0,1,7.585-9.337h0c4.743-.57,9.882,2.713,10.453,7.456l.493,7.048A9.454,9.454,0,0,1,496.3,85.7Z" transform="translate(-483.798 -53.097)" fill="#ffc9bd"/>
              <g id="Group_266" data-name="Group 266" transform="translate(3.385 17.922)">
                <path id="Path_194" data-name="Path 194" d="M500.132,77.756l-.576,1.664,1.426,0" transform="translate(-495.604 -71.062)" fill="none" stroke="#201d2f" stroke-linecap="round" stroke-linejoin="round" stroke-miterlimit="10" stroke-width="0.568"/>
                <path id="Path_195" data-name="Path 195" d="M495.278,71.071s-2.279-.266-2.2.908c0,0,.071.795,2.057.979s2.481.006,2.6-.739S496.339,71.092,495.278,71.071Z" transform="translate(-485.897 -71.045)" fill="#fe5d5d"/>
                <path id="Path_196" data-name="Path 196" d="M503.162,71.436s1.619-.313,1.777.754c0,0,.1.724-1.323.955s-1.887-.007-2.035-.589C501.412,71.9,502.391,71.489,503.162,71.436Z" transform="translate(-501.562 -71.046)" fill="#fe5d5d"/>
                <ellipse id="Ellipse_65" data-name="Ellipse 65" cx="0.811" cy="0.811" rx="0.811" ry="0.811" transform="translate(8.05 3.527)" fill="#201d2f"/>
                <ellipse id="Ellipse_66" data-name="Ellipse 66" cx="0.731" cy="0.731" rx="0.731" ry="0.731" transform="translate(1.333 3.92)" fill="#201d2f"/>
                <path id="Path_197" data-name="Path 197" d="M500.7,80.625h-4.634s-.167,1.637,2.318,1.615C500.891,82.218,500.7,80.625,500.7,80.625Z" transform="translate(-491.846 -71.069)" fill="#fffffd"/>
              </g>
              <path id="Path_198" data-name="Path 198" d="M494.705,73.2a12.51,12.51,0,0,1-8.435-8.641l.811-4.321s11.664-1.11,9.379,11.092Z" transform="translate(-474.742 -53.096)" fill="#fe5d5d"/>
              <path id="Path_199" data-name="Path 199" d="M508.3,65.027s-3.572,4.773-15,5.681c0,0-.584-11.6,12.336-10.473Z" transform="translate(-493.298 -53.096)" fill="#fe5d5d"/>
              <path id="Path_200" data-name="Path 200" d="M497.412,61.061a13.856,13.856,0,0,0-5.4-2.853,10.174,10.174,0,0,0-5.07,0" transform="translate(-476.067 -53.09)" fill="none" stroke="#fff" stroke-linecap="round" stroke-linejoin="round" stroke-miterlimit="10" stroke-width="0.757"/>
              <path id="Path_201" data-name="Path 201" d="M486.944,71.731l2.728,4.285.746-6.622Z" transform="translate(-469.074 -53.119)" fill="#fe5d5d"/>
              <g id="Group_267" data-name="Group 267" transform="translate(19.269 17.902)">
                <ellipse id="Ellipse_67" data-name="Ellipse 67" cx="3.546" cy="3.546" rx="3.546" ry="3.546" transform="translate(0)" fill="#ffc9bd"/>
                <path id="Path_202" data-name="Path 202" d="M484.4,75.772s-.306-2.553,2.182-2.444" transform="translate(-481.96 -71.031)" fill="none" stroke="#201d2f" stroke-linecap="round" stroke-linejoin="round" stroke-miterlimit="10" stroke-width="0.568"/>
              </g>
            </g>
            <path id="Path_203" data-name="Path 203" d="M503.56,92.523s-3.137,3.875-10.241,5.419a9.655,9.655,0,0,1-10.5-5.222s6.411-2.807,8.177-2.807l6.755.545Z" transform="translate(-478.096 -53.171)" fill="#ffc9bd"/>
          </g>
        </g>
      </g>
      <g id="Group_279" data-name="Group 279" transform="translate(0 21.978)">
        <g id="Group_273" data-name="Group 273" transform="translate(24.864 58.458)">
          <g id="Group_272" data-name="Group 272" transform="translate(15.944 3.088)">
            <path id="Path_204" data-name="Path 204" d="M611.743,213.474l-24.524-76.66-25.138,75.729" transform="translate(-562.081 -136.814)" fill="none" stroke="#213033" stroke-miterlimit="10" stroke-width="1.038"/>
            <path id="Path_205" data-name="Path 205" d="M498.817,213.474l-24.524-76.66-25.138,75.729" transform="translate(-336.513 -136.814)" fill="none" stroke="#213033" stroke-miterlimit="10" stroke-width="1.038"/>
          </g>
          <rect id="Rectangle_152" data-name="Rectangle 152" width="69.762" height="6.177" transform="translate(116.743)" fill="#111d36"/>
          <rect id="Rectangle_153" data-name="Rectangle 153" width="118.293" height="6.177" transform="translate(0)" fill="#24385b"/>
        </g>
        <g id="Group_278" data-name="Group 278" transform="translate(47.551)">
          <g id="Group_274" data-name="Group 274" transform="translate(41.043 56.027)">
            <path id="Path_206" data-name="Path 206" d="M562.652,131.28H532.208a1.226,1.226,0,0,0-1.226,1.226h0a1.226,1.226,0,0,0,1.226,1.226h30.444a1.226,1.226,0,0,0,1.226-1.226h0A1.225,1.225,0,0,0,562.652,131.28Z" transform="translate(-530.982 -131.28)" fill="#090b0c"/>
            <path id="Path_207" data-name="Path 207" d="M538.433,131.28h-21.9a1.226,1.226,0,0,0-1.226,1.226h0a1.226,1.226,0,0,0,1.226,1.226h21.9a1.226,1.226,0,0,0,1.226-1.226h0A1.226,1.226,0,0,0,538.433,131.28Z" transform="translate(-491.124 -131.28)" fill="#3d5056"/>
          </g>
          <g id="Group_275" data-name="Group 275" transform="translate(0)">
            <path id="Path_208" data-name="Path 208" d="M600.528,121.9H536.281a2.865,2.865,0,0,1-2.864-2.865V77.977a2.865,2.865,0,0,1,2.864-2.865h64.248a2.864,2.864,0,0,1,2.864,2.865v41.056A2.864,2.864,0,0,1,600.528,121.9Z" transform="translate(-531.882 -75.112)" fill="#273237"/>
            <path id="Path_209" data-name="Path 209" d="M602.066,121.9H537.82a2.865,2.865,0,0,1-2.865-2.865V77.977a2.865,2.865,0,0,1,2.865-2.865h64.247a2.865,2.865,0,0,1,2.865,2.864v41.056A2.865,2.865,0,0,1,602.066,121.9Z" transform="translate(-534.955 -75.112)" fill="#273237"/>
          </g>
          <g id="Group_277" data-name="Group 277" transform="translate(18.441 21.115)">
            <path id="Path_210" data-name="Path 210" d="M556.055,96.921l16.769,25.032H548.7Z" transform="translate(-535.002 -96.282)" fill="#090b0c"/>
            <g id="Group_276" data-name="Group 276" transform="translate(0)">
              <path id="Path_211" data-name="Path 211" d="M574.249,96.28h10.787a1.53,1.53,0,0,1,1.5,1.834l-6.965,34.3a1.529,1.529,0,0,1-1.5,1.226H566.747a1.528,1.528,0,0,1-1.493-1.856l7.5-34.3A1.529,1.529,0,0,1,574.249,96.28Z" transform="translate(-565.218 -96.28)" fill="#3d5056"/>
              <path id="Path_212" data-name="Path 212" d="M580.446,131.28h-19.9v2.452h19.9a1.226,1.226,0,0,0,1.226-1.226h0A1.227,1.227,0,0,0,580.446,131.28Z" transform="translate(-555.663 -96.368)" fill="#3d5056"/>
            </g>
          </g>
        </g>
        <line id="Line_71" data-name="Line 71" x2="250.866" transform="translate(0 138.147)" fill="none" stroke="#213033" stroke-miterlimit="10" stroke-width="1.038"/>
      </g>
    </g>
  </g>
</svg>
