<svg xmlns="http://www.w3.org/2000/svg" width="281.749" height="369.691" viewBox="0 0 281.749 369.691">
  <defs>
    <style>
      .cls-1 {
        fill: #50569e;
      }

      .cls-2 {
        fill: #f9a269;
      }

      .cls-3 {
        fill: #ffa367;
      }

      .cls-4 {
        fill: #ff6d64;
      }

      .cls-5 {
        fill: #fca604;
      }

      .cls-6 {
        fill: #f27161;
      }

      .cls-7 {
        fill: #fcebe4;
      }

      .cls-8 {
        fill: #ffc9bd;
      }

      .cls-11, .cls-9 {
        fill: #050d0f;
      }

      .cls-10 {
        fill: #628297;
      }

      .cls-11 {
        opacity: 0.7;
      }

      .cls-12 {
        fill: #aee2fa;
      }

      .cls-13, .cls-16 {
        fill: #2d3f96;
      }

      .cls-14 {
        fill: #4151b3;
      }

      .cls-15 {
        fill: #fe5d5d;
      }

      .cls-16 {
        opacity: 0.25;
      }

      .cls-17 {
        opacity: 0.15;
      }

      .cls-18 {
        fill: #b37e72;
      }

      .cls-19, .cls-24, .cls-25, .cls-26 {
        fill: none;
        stroke-miterlimit: 10;
      }

      .cls-19 {
        stroke: #201d2f;
        stroke-width: 1.25px;
      }

      .cls-19, .cls-24, .cls-25 {
        stroke-linecap: round;
      }

      .cls-19, .cls-25 {
        stroke-linejoin: round;
      }

      .cls-20 {
        fill: #fffffd;
      }

      .cls-21, .cls-22 {
        fill: #fcb29a;
      }

      .cls-21 {
        opacity: 0.43;
      }

      .cls-23 {
        fill: #c1ccff;
      }

      .cls-24, .cls-25 {
        stroke: #fff;
        stroke-width: 1.101px;
      }

      .cls-26 {
        stroke: #98abed;
        stroke-width: 1.652px;
      }
    </style>
  </defs>
  <g id="female_Happy" data-name="female Happy" transform="translate(-197.513 10.395)">
    <g id="Layer_2" transform="translate(197.513 -10.395)">
      <g id="Group_330" data-name="Group 330" transform="translate(26.577 157.176)">
        <path id="Path_224" data-name="Path 224" class="cls-1" d="M318.353,206.879c-1.732-4.79-5.339-9-10.3-10.228-9.181-.747-13.972,1.585-18.72,6.164s-7.47,10.807-10.117,16.849-5.457,12.248-10.317,16.707c-8.3,7.611-21.087,8.806-29.162,16.65s-9.29,21.242-4.154,31.261,15.651,16.628,26.715,18.711a34.312,34.312,0,0,0,10.924.434c10.668-1.441,19.75-9.307,24.634-18.9s6.032-20.7,5.457-31.451c-.28-5.238-.9-10.739,1.255-15.52,4.281-9.479,15.218-12.738,14.935-24.684A19.087,19.087,0,0,0,318.353,206.879Z" transform="translate(-232.5 -196.514)"/>
      </g>
      <g id="Group_331" data-name="Group 331" transform="translate(145.072 89.998)">
        <path id="Path_225" data-name="Path 225" class="cls-1" d="M483.359,108.1c-8.955.438-24.814,8.9-34.867,18.641-15.134,14.671-9.524,22.852-6.9,30.3,2.012,5.719,2.214,13.092-3.353,22.422-3.211,5.379-8.091,11-12.776,16.524-11.89,14.021-23.167,28.346-30.193,41.7s-9.391,25.759-3.243,31.688a10.5,10.5,0,0,0,6.414,2.847c6.1.623,15.142-2.55,24.11-6.908a188.808,188.808,0,0,0,37.54-24.592c10.991-9.189,21.1-19.822,26.332-29.485,7.5-13.846,3.909-23.025-.109-30.952s-8.224-16.563-1.721-30.108c2.012-4.189,4.979-8.658,7.043-12.866,6.183-12.59,5.439-23.646-2.04-27.923A11.279,11.279,0,0,0,483.359,108.1Z" transform="translate(-388.489 -108.08)"/>
      </g>
      <g id="Group_333" data-name="Group 333" transform="translate(164.082 263.499)">
        <g id="Group_332" data-name="Group 332">
          <path id="Path_226" data-name="Path 226" class="cls-2" d="M452.514,338.17c-17.458-5.915-37.294,4.124-38.931,23.413a23.759,23.759,0,0,0,9.634,20.439c8.534,6.06,18.961,3.686,28.548,6.333a35.146,35.146,0,0,1,13.584,7.623c4.312,3.773,6.693,8.61,9.635,13.389,1.681,2.731,4.6,5.685,7.992,6,4.6.431,7.673-2.77,10.655-5.839,6.631-6.821,4.573-14.937-1.067-21.609-3.014-3.566-7.065-6.191-10.6-9.2a22.782,22.782,0,0,1-8.276-14.583c-2.121-12.811-10.907-23.3-23.609-26.717a.95.95,0,0,0-.5,1.831,30.9,30.9,0,0,1,19.911,16.859c2.255,4.742,2.074,10.075,3.972,14.906,1.424,3.624,4.309,6.515,7.163,9.048,7.537,6.689,21.6,15.835,12.517,27.174a25.342,25.342,0,0,1-6.231,5.6c-4.105,2.53-8.152-1.323-10.288-4.426-2.6-3.784-4.4-7.84-7.474-11.326a36.846,36.846,0,0,0-21.392-11.562c-5.2-.881-10.507-.532-15.7-1.559A20.766,20.766,0,0,1,419.4,375.37c-6.455-8.956-4.379-20.778,2.574-28.729,7.4-8.462,19.817-10.1,30.033-6.641,1.162.4,1.657-1.439.5-1.829Z" transform="translate(-413.514 -336.48)"/>
        </g>
      </g>
      <g id="Group_335" data-name="Group 335" transform="translate(20.574)">
        <g id="Group_334" data-name="Group 334">
          <path id="Path_227" data-name="Path 227" class="cls-2" d="M327.278-6.561c-14.967-8.681-33.653-1.666-43.435,11.485-5.073,6.819-7.49,15.375-10.99,23.019a43.27,43.27,0,0,1-6.721,10.742c-3.886,4.407-8.705,5.915-14.278,7C238.68,48.265,221.412,60.933,225.1,76.23c3.866,16.019,23.668,14.023,34.985,8.6a33.3,33.3,0,0,0,10.73-8.092c4.609-5.282,7.454-11.758,12.657-16.578,9.315-8.626,23.138-10.26,34.426-15.144,10.323-4.466,19.873-12.613,22.437-23.967,2.465-10.914-4.006-21.931-13.06-27.608-1.041-.653-1.993.991-.959,1.639C335.3.709,340.653,11.04,338.264,21.618c-2.278,10.09-11.49,17.065-20.31,21.3-8.441,4.05-17.787,5.809-26.3,9.728-8.975,4.133-13.99,11.012-19.36,18.97-5.055,7.491-12.267,12.118-20.946,14.454-8.508,2.29-18,1.14-22.947-6.866-5.486-8.882,1.329-18.521,8.119-24.175a36.928,36.928,0,0,1,11.443-6.4c4.569-1.587,9.4-1.7,13.781-3.91,12.271-6.2,15.16-23.628,21.1-34.631C290.9-4.838,310.722-13.968,326.32-4.92A.951.951,0,0,0,327.278-6.561Z" transform="translate(-224.597 10.395)"/>
        </g>
      </g>
      <g id="Group_336" data-name="Group 336" transform="translate(237.736 210.761)">
        <path id="Path_228" data-name="Path 228" class="cls-1" d="M519.924,267.391c-4.511-1.439-9.818,1.747-9.431,9.378.2,3.868,1.784,7.967,5.17,9.849,7.362,4.092,10.968-4.925,10.219-10.925C525.3,271.051,522.772,268.3,519.924,267.391Z" transform="translate(-510.473 -267.054)"/>
      </g>
      <circle id="Ellipse_75" data-name="Ellipse 75" class="cls-3" cx="4.426" cy="4.426" r="4.426" transform="translate(260.998 260.783)"/>
      <circle id="Ellipse_76" data-name="Ellipse 76" class="cls-3" cx="3.538" cy="3.538" r="3.538" transform="translate(51.411 197.806)"/>
      <circle id="Ellipse_77" data-name="Ellipse 77" class="cls-4" cx="3.538" cy="3.538" r="3.538" transform="translate(241.468 159.812)"/>
      <circle id="Ellipse_78" data-name="Ellipse 78" class="cls-4" cx="3.538" cy="3.538" r="3.538" transform="translate(182.76 347.573)"/>
      <circle id="Ellipse_79" data-name="Ellipse 79" class="cls-4" cx="2.018" cy="2.018" r="2.018" transform="translate(33.738 144.451)"/>
      <circle id="Ellipse_80" data-name="Ellipse 80" class="cls-4" cx="3.257" cy="3.257" r="3.257" transform="translate(0 235.968)"/>
      <circle id="Ellipse_81" data-name="Ellipse 81" class="cls-5" cx="3.257" cy="3.257" r="3.257" transform="translate(78.142 342.406)"/>
      <circle id="Ellipse_82" data-name="Ellipse 82" class="cls-5" cx="2.325" cy="2.325" r="2.325" transform="translate(156.244 218.732)"/>
      <circle id="Ellipse_83" data-name="Ellipse 83" class="cls-3" cx="3.385" cy="3.385" r="3.385" transform="translate(245.005 72.642)"/>
      <circle id="Ellipse_84" data-name="Ellipse 84" class="cls-3" cx="2.144" cy="2.144" r="2.144" transform="translate(209.146 258.64)"/>
      <circle id="Ellipse_85" data-name="Ellipse 85" class="cls-5" cx="2.476" cy="2.476" r="2.476" transform="translate(163.741 313.306)"/>
      <circle id="Ellipse_86" data-name="Ellipse 86" class="cls-3" cx="2.517" cy="2.517" r="2.517" transform="translate(24.061 346.077)"/>
      <circle id="Ellipse_87" data-name="Ellipse 87" class="cls-4" cx="1.544" cy="1.544" r="1.544" transform="translate(64.203 241.031)"/>
      <circle id="Ellipse_88" data-name="Ellipse 88" class="cls-4" cx="1.545" cy="1.545" r="1.545" transform="translate(183.208 42.238)"/>
      <circle id="Ellipse_89" data-name="Ellipse 89" class="cls-4" cx="2.144" cy="2.144" r="2.144" transform="translate(83.144 157.667)"/>
      <circle id="Ellipse_90" data-name="Ellipse 90" class="cls-3" cx="2.144" cy="2.144" r="2.144" transform="translate(111.386 37.193)"/>
      <circle id="Ellipse_91" data-name="Ellipse 91" class="cls-6" cx="2.121" cy="2.121" r="2.121" transform="translate(118.686 97.785)"/>
      <circle id="Ellipse_92" data-name="Ellipse 92" class="cls-6" cx="2.09" cy="2.09" r="2.09" transform="translate(144.428 229.701)"/>
      <circle id="Ellipse_93" data-name="Ellipse 93" class="cls-6" cx="2.723" cy="2.723" r="2.723" transform="translate(82.563 298.841)"/>
      <circle id="Ellipse_94" data-name="Ellipse 94" class="cls-4" cx="2.343" cy="2.343" r="2.343" transform="translate(214.915 180.415)"/>
      <circle id="Ellipse_95" data-name="Ellipse 95" class="cls-4" cx="2.46" cy="2.46" r="2.46" transform="translate(202.798 131.55)"/>
      <circle id="Ellipse_96" data-name="Ellipse 96" class="cls-4" cx="0.94" cy="0.94" r="0.94" transform="translate(237.112 306.742)"/>
      <circle id="Ellipse_97" data-name="Ellipse 97" class="cls-4" cx="2.036" cy="2.036" r="2.036" transform="translate(246.355 305.646)"/>
      <path id="Path_229" data-name="Path 229" class="cls-7" d="M302.28,79.758l2.667,4.877,4.877,2.666-4.877,2.668-2.667,4.877-2.667-4.877L294.736,87.3l4.877-2.666Z" transform="translate(-220.882 -11.274)"/>
      <path id="Path_230" data-name="Path 230" class="cls-7" d="M291.665,360.227l1.234,2.255,2.255,1.234-2.255,1.234-1.234,2.256-1.234-2.256-2.256-1.234,2.256-1.234Z" transform="translate(-219.305 -78.689)"/>
      <path id="Path_231" data-name="Path 231" class="cls-7" d="M352.049,411.551l1.907,3.485,3.486,1.906-3.486,1.907-1.907,3.486-1.907-3.486-3.486-1.907,3.486-1.906Z" transform="translate(-233.361 -91.025)"/>
      <path id="Path_232" data-name="Path 232" class="cls-7" d="M370.39,353.164l1.215,2.223,2.223,1.215-2.223,1.216-1.215,2.223-1.216-2.223-2.223-1.216,2.223-1.215Z" transform="translate(-238.24 -76.991)"/>
      <path id="Path_233" data-name="Path 233" class="cls-7" d="M253.221,159.5Z" transform="translate(-210.903 -30.441)"/>
      <path id="Path_234" data-name="Path 234" class="cls-7" d="M520.435,99.43l.88,1.609,1.608.88-1.608.88-.88,1.609-.881-1.609-1.609-.88,1.609-.88Z" transform="translate(-274.533 -16.003)"/>
      <path id="Path_235" data-name="Path 235" class="cls-7" d="M468.166,89.688l1.1,2.012,2.011,1.1-2.011,1.1-1.1,2.012-1.1-2.012-2.012-1.1,2.012-1.1Z" transform="translate(-261.82 -13.661)"/>
      <path id="Path_236" data-name="Path 236" class="cls-7" d="M283.08,111.578l1.1,2.012,2.012,1.1-2.012,1.1-1.1,2.012-1.1-2.012-2.011-1.1,2.011-1.1Z" transform="translate(-217.332 -18.923)"/>
      <path id="Path_237" data-name="Path 237" class="cls-7" d="M561.341,381.127l1.531,2.8,2.8,1.531-2.8,1.531-1.531,2.8-1.531-2.8-2.8-1.531,2.8-1.531Z" transform="translate(-283.923 -83.712)"/>
      <path id="Path_238" data-name="Path 238" class="cls-7" d="M377.522,425.045l1.531,2.8,2.8,1.531-2.8,1.531-1.531,2.8-1.531-2.8-2.8-1.531,2.8-1.531Z" transform="translate(-239.74 -94.268)"/>
    </g>
    <g id="OBJECTS" transform="translate(213.22 6.132)">
      <g id="Group_345" data-name="Group 345">
        <g id="Group_337" data-name="Group 337" transform="translate(0 270.512)">
          <path id="Path_239" data-name="Path 239" class="cls-8" d="M277.544,379.133a11.54,11.54,0,0,0-.89-1.357c-5.533,2.147-14.323-2.625-14.323-2.625a98.094,98.094,0,0,0-21.844,6.7c-8.636,3.855-5.658,10.618-3.863,13.282.479-.141,1.945-.245,2.45-.389a82.83,82.83,0,0,1,12.483-2.552,77.068,77.068,0,0,1,15.832-.213,164.507,164.507,0,0,1,18,2.819c.194.037,2.115.384,2.113.439,0-.007.63-16.33.63-16.33Z" transform="translate(-222.143 -369.315)"/>
          <path id="Path_240" data-name="Path 240" class="cls-9" d="M237.544,380.529c2.817-1.256,5.54-2.288,8.039-3.124a37.474,37.474,0,0,1,19.228-1.276c2.616.527,5.584.724,7.955-.2-.6-6.35-10.118-13.183-30.077-3.99a86.615,86.615,0,0,0-12.485,7.337c-3.487,2.382-7.339,5.054-9.609,8.707-1.869,3-3.238,5.377-1.815,8.468A3,3,0,0,0,221.7,398.2c1.977.059,3.325-1.011,4.992-1.971a29.635,29.635,0,0,1,6.96-2.9C231.857,390.661,228.912,384.384,237.544,380.529Z" transform="translate(-218.19 -367.468)"/>
        </g>
        <g id="Group_339" data-name="Group 339" transform="translate(35.4 295)">
          <g id="Group_338" data-name="Group 338" transform="translate(0 8.584)">
            <path id="Path_241" data-name="Path 241" class="cls-8" d="M324.628,424.379c-1.286,2.459-5.337,4.327-8.563,6.415-4.054,2.631-13.675,16.721-17.764,21.614,12.039-7.238,28.49-15.77,29.975-15.813l6.028-5.033Z" transform="translate(-272.846 -414.219)"/>
            <path id="Path_242" data-name="Path 242" class="cls-9" d="M317.9,422.322l-.005,0s-1.728-4.022-10.6-6.5l-36.981,42.222s1.631,6.055,11.646-1.224c2.558-1.861,6.267-4.221,10.4-6.705,4.089-4.891,14.542-17.175,18.6-19.8A22.082,22.082,0,0,0,317.9,422.322Z" transform="translate(-266.119 -412.162)"/>
            <ellipse id="Ellipse_98" data-name="Ellipse 98" class="cls-10" cx="5.586" cy="28.063" rx="5.586" ry="28.063" transform="translate(36.987 0) rotate(41.221)"/>
            <ellipse id="Ellipse_99" data-name="Ellipse 99" class="cls-11" cx="5.586" cy="28.063" rx="5.586" ry="28.063" transform="translate(36.987 0) rotate(41.221)"/>
          </g>
          <path id="Path_243" data-name="Path 243" class="cls-12" d="M425.474,425.62s-67.943,8.129-89.148,11.151c0,0-7.051-7.1-3.493-18.853,0,0,64.758-29.3,92.241-13.57C425.075,404.346,442.868,419.71,425.474,425.62Z" transform="translate(-280.905 -399.705)"/>
          <path id="Path_244" data-name="Path 244" class="cls-13" d="M425.474,425.62s-67.943,8.129-89.148,11.151c0,0-7.051-7.1-3.493-18.853,0,0,64.758-29.3,92.241-13.57C425.075,404.346,442.868,419.71,425.474,425.62Z" transform="translate(-280.905 -399.705)"/>
        </g>
        <path id="Path_245" data-name="Path 245" class="cls-14" d="M368.981,427.04s-63.765-24.827-83.9-32.146c0,0-2.872-9.587,5.8-18.274,0,0,68.206,6.434,85.042,33.257C375.925,409.878,387.109,430.017,368.981,427.04Z" transform="translate(-234.159 -99.156)"/>
        <path id="Path_246" data-name="Path 246" class="cls-13" d="M374.13,409.751s-18.2-11.661-24.6-21.984c0,0,14.228,3.784,22.6,8.781Z" transform="translate(-249.759 -101.835)"/>
        <path id="Path_247" data-name="Path 247" class="cls-13" d="M413.16,294.484s53.808,101.934,24.55,105.89c0,0-16.706,5.04-40.32-43.26l-14.806-46.525Z" transform="translate(-257.704 -79.414)"/>
        <circle id="Ellipse_100" data-name="Ellipse 100" class="cls-15" cx="11.747" cy="11.747" r="11.747" transform="translate(77.845 48.326)"/>
        <circle id="Ellipse_101" data-name="Ellipse 101" class="cls-15" cx="7.969" cy="7.969" r="7.969" transform="translate(93.736 55.665)"/>
        <circle id="Ellipse_102" data-name="Ellipse 102" class="cls-15" cx="14.328" cy="14.328" r="14.328" transform="translate(60.937 43.963)"/>
        <circle id="Ellipse_103" data-name="Ellipse 103" class="cls-15" cx="11.748" cy="11.748" r="11.748" transform="translate(51.197 68.088)"/>
        <circle id="Ellipse_104" data-name="Ellipse 104" class="cls-15" cx="8.365" cy="8.365" r="8.365" transform="translate(59.065 81.548)"/>
        <circle id="Ellipse_105" data-name="Ellipse 105" class="cls-15" cx="8.365" cy="8.365" r="8.365" transform="translate(83.233 105.532)"/>
        <path id="Path_248" data-name="Path 248" class="cls-15" d="M331.235,145.092A16.413,16.413,0,1,1,314.82,128.68,16.412,16.412,0,0,1,331.235,145.092Z" transform="translate(-237.472 -39.56)"/>
        <circle id="Ellipse_106" data-name="Ellipse 106" class="cls-15" cx="11.748" cy="11.748" r="11.748" transform="translate(79.851 65.041)"/>
        <circle id="Ellipse_107" data-name="Ellipse 107" class="cls-15" cx="13.878" cy="13.878" r="13.878" transform="translate(91.599 69.728)"/>
        <circle id="Ellipse_108" data-name="Ellipse 108" class="cls-15" cx="13.876" cy="13.876" r="13.876" transform="translate(99.886 81.673)"/>
        <circle id="Ellipse_109" data-name="Ellipse 109" class="cls-15" cx="14.328" cy="14.328" r="14.328" transform="translate(51.197 52.079)"/>
        <path id="Path_249" data-name="Path 249" class="cls-16" d="M416.185,297.347l-8.862,21.934,6.315,61.193-26.226-60.611,28-23.085A.5.5,0,0,1,416.185,297.347Z" transform="translate(-258.864 -79.937)"/>
        <path id="Path_250" data-name="Path 250" class="cls-14" d="M365.338,259.338s-59.259,31.008,12.3,135.736c0,0,10.754,10.825,23.439-.116S383.5,310.7,383.5,310.7s15.955-7.861,21.532-24.351L406.1,269.82Z" transform="translate(-248.021 -70.966)"/>
        <g id="Group_340" data-name="Group 340" class="cls-17" transform="translate(94.293 188.372)">
          <path id="Path_251" data-name="Path 251" class="cls-14" d="M357.283,360.613c-37.86-77.225,8.06-101.275,8.06-101.275l18.174,4.673C368.88,272.253,345.238,295.885,357.283,360.613Z" transform="translate(-342.319 -259.338)"/>
        </g>
        <path id="Path_252" data-name="Path 252" class="cls-8" d="M411.213,262.688c-26.353,5.272-55.35-26.219-55.35-26.219s3.174-19.232,4.214-30.509c1.038-11.3-4.685-18.306-7.953-28.846-3.268-10.56,9.275-22.839,14.414-28.505s-2.7-22.97-2.7-22.97l3.758-.151s.623-.038,1.625-.038c.208,0,.435,0,.681.018,4.8.095,15.45,1.154,15.112,8.614a48.7,48.7,0,0,0,.566,11.579c.077.454.17.87.264,1.266,1.436,5.554,4.024,5.346,4.024,5.346l4.5,3.987,16.587,52.5C407.455,223.869,411.213,262.688,411.213,262.688Z" transform="translate(-250.254 -38.784)"/>
        <path id="Path_253" data-name="Path 253" class="cls-18" d="M390.907,145.668c-9.483-.055-17.153-6.479-17.153-14.374a12.314,12.314,0,0,1,1.474-5.82c4.8.095,15.45,1.154,15.112,8.614A48.7,48.7,0,0,0,390.907,145.668Z" transform="translate(-255.582 -38.79)"/>
        <g id="Group_341" data-name="Group 341" transform="translate(195.583 13.457)">
          <path id="Path_254" data-name="Path 254" class="cls-8" d="M485.9,36.056c-.72.945-1.606,4.1-2.609,8.444a67.888,67.888,0,0,1-7.633-7.8c2.4-3.552,4.667-6.215,6.388-6.932C487.92,27.31,489,31.882,485.9,36.056Z" transform="translate(-475.659 -29.076)"/>
        </g>
        <g id="Group_343" data-name="Group 343" transform="translate(113.762 58.289)">
          <path id="Path_255" data-name="Path 255" class="cls-8" d="M391.168,130.71h0c7.672-1.911,12.481-9.543,11.126-15.857l-3.272-14.886A15.011,15.011,0,0,0,381.7,88.332h0c-8.155,1.465-15.013,9.521-13.549,17.678l2.764,11.94C373.047,127.185,381.264,132.932,391.168,130.71Z" transform="translate(-367.949 -88.094)"/>
          <g id="Group_342" data-name="Group 342" transform="translate(11.756 14.957)">
            <path id="Path_256" data-name="Path 256" class="cls-19" d="M403.01,123.678l1.8,2.467-2.367.728" transform="translate(-387.996 -111.604)"/>
            <path id="Path_257" data-name="Path 257" class="cls-15" d="M387,112.171s3.645-1.6,4.108.387c0,0,.286,1.355-2.917,2.669s-4.11,1.269-4.681.094S385.253,112.744,387,112.171Z" transform="translate(-383.424 -108.692)"/>
            <path id="Path_258" data-name="Path 258" class="cls-15" d="M404.547,107.914s-2.843.3-2.562,2.153c0,0,.209,1.25,2.676.911s3.131-.97,3.078-2.01C407.681,107.79,405.853,107.61,404.547,107.914Z" transform="translate(-387.881 -107.784)"/>
            <path id="Path_259" data-name="Path 259" class="cls-20" d="M395.649,132.076l7.691-2.353s1.579,4.184-2.556,5.391C396.608,136.329,395.649,132.076,395.649,132.076Z" transform="translate(-386.363 -113.057)"/>
            <path id="Path_260" data-name="Path 260" class="cls-19" d="M388.152,120.875s1.816-2.991,4.729-1.1" transform="translate(-384.561 -110.515)"/>
            <path id="Path_261" data-name="Path 261" class="cls-19" d="M404,117.338s1.478-2.4,3.709-.865" transform="translate(-388.37 -109.749)"/>
          </g>
        </g>
        <path id="Path_262" data-name="Path 262" class="cls-21" d="M352.246,186.857c3.263,10.556,8.995,17.563,7.956,28.849s-4.219,30.515-4.219,30.515,28.992,31.494,55.34,26.223c0,0-3.749-38.821-.253-53.944l-16.59-52.482S348.982,176.3,352.246,186.857Z" transform="translate(-250.372 -48.535)"/>
        <path id="Path_263" data-name="Path 263" class="cls-8" d="M297.392,42.569a97.69,97.69,0,0,0-9.671,5.874c-1.19-3.872-2.211-6.611-2.892-7.46-3.266-4.044-11.767-8.936-9.293-12.2,2.476-3.287,13.186,2.362,17.21,7.292C294.1,37.752,295.71,40.019,297.392,42.569Z" transform="translate(-231.867 -15.313)"/>
        <path id="Path_264" data-name="Path 264" class="cls-8" d="M256.979,24.526s-3.5-1.686-2.367-2.808c.861-.853,4.462,2.785,11.387,3.536,9.689,1.052,13.432,2.35,17.81,7.563a41.833,41.833,0,0,1,6.612,11.673l-4.736-.515a10.492,10.492,0,0,1-7.549-4.483,5.96,5.96,0,0,0-4.471-2.745c-5.1-.486-6.7,3.089-12.187.743-.657-.28-3.146-2.348.118-2.183,3.229.163,4.939-1.186,4.4-2.318-.8-1.689-6.932-.307-11.541-1.6-4.728-1.322-8.253-3.515-6.934-4.9a.419.419,0,0,1,.4-.1A25.738,25.738,0,0,0,254.8,27s-6.3-1.63-6.044-3.343S252.45,24.31,256.979,24.526Z" transform="translate(-225.172 -13.82)"/>
        <path id="Path_265" data-name="Path 265" class="cls-8" d="M499.3,15.141s2.8-2.689,1.377-3.4c-1.082-.542-3.727,3.355-9.725,6.9s-12.34,6.7-14.881,13.016A35.98,35.98,0,0,0,473.708,44.5l4.341-1.961a10.479,10.479,0,0,0,5.783-6.605,5.971,5.971,0,0,1,3.4-4c4.7-2.045,7.327.857,11.817-3.077.538-.469,2.261-3.211-.791-2.04-3.016,1.158-5.062.408-4.9-.837.242-1.856,6.967-1.4,10.712-4.383,3.6-2.868,6.518-6.623,4.832-7.533a.417.417,0,0,0-.41.027c-.444.281-1.812,1.089-5.354,2.853,0,0,4.479-3.637,3.7-5.185S503.533,13.53,499.3,15.141Z" transform="translate(-279.606 -11.361)"/>
        <path id="Path_266" data-name="Path 266" class="cls-22" d="M395.884,123.5" transform="translate(-260.901 -38.314)"/>
        <path id="Path_267" data-name="Path 267" class="cls-15" d="M383.649,87.292l3.083-1.1s.023,4.74,5.749,8.107c5.36,3.152,4.262,10.747,4.262,10.747s4.118-9.135-1.2-15.835c-7.973-10.042-20.932-11.113-37.188,3.121C348.954,100.561,383.649,87.292,383.649,87.292Z" transform="translate(-251.492 -28.256)"/>
        <path id="Path_268" data-name="Path 268" class="cls-15" d="M369.639,84.766s3.118-2.239,2.168-2.378c-5.463-.8-16.191,7.47-25.752,5.836-9-1.54-10.807-3.5-10.807-3.5l6.426,16.587,19.275,1.807Z" transform="translate(-246.326 -28.42)"/>
        <path id="Path_269" data-name="Path 269" class="cls-15" d="M369.773,112.017A23.693,23.693,0,0,0,382.3,92.884l-3.083-7.734s-22.078,2.188-13.387,24.03Z" transform="translate(-253.19 -29.097)"/>
        <path id="Path_270" data-name="Path 270" class="cls-15" d="M379.685,95.28s8.379,7.568,29.952,5.09c0,0-3.143-21.77-26.742-14.969Z" transform="translate(-257.007 -28.841)"/>
        <path id="Path_271" data-name="Path 271" class="cls-8" d="M372.089,120.954s-1.038-4.2-6.133-2.946c-4.533,1.119-2.791,14.609,6.213,10.768" transform="translate(-253.128 -36.939)"/>
        <path id="Path_272" data-name="Path 272" class="cls-15" d="M376.157,113.98l-3.508,8.96-3.8-12.037Z" transform="translate(-254.403 -35.287)"/>
        <path id="Path_273" data-name="Path 273" class="cls-23" d="M354.732,156.825l-2.173,10.617-3.287,8.935s-1.662,9.54-7.9-5.12c-6.234-14.678-50.437-65.624-48.624-78.659s-7.178-36.08-7.178-36.08c1.587-1.248,3.172-2.381,4.666-3.4a97.693,97.693,0,0,1,9.671-5.874c5.876,8.9,12.845,21.516,15.263,27.146,3.118,7.254,6.782,22.083,12.732,28.486,5.931,6.423,15.434,20.873,23.519,25.86,3.532,2.192,3.4,11.465,1.511,20.4Z" transform="translate(-234.387 -19.986)"/>
        <path id="Path_274" data-name="Path 274" class="cls-23" d="M357.384,196.789c17.542,4.1,9.235-43.251,9.235-43.251.292-.321.6,1.128.811.737,9.647,10.431,18.784,10.029,19.821,3.5,0,0,7.182-.3,7.865.656,4.925,6.922,8.275,17.1,20.326,30.148,11.075,11.994-4.345,26.913-4.345,26.913-3.5,15.124,1.926,53.882,1.926,53.882-26.35,5.272-60.838-23.349-60.838-23.349s7-22.039,8.043-33.327C360.795,206.545,359.344,201.666,357.384,196.789Z" transform="translate(-250.397 -45.524)"/>
        <path id="Path_275" data-name="Path 275" class="cls-23" d="M475.254,52.032s-5.233,10.029-7.744,28.279c-2.514,18.265-24.558,47.717-32.115,60.865a165.769,165.769,0,0,0-11.126,22.837l-2.758-4.344c-7.46,6.082-19.589-23.256-14.319-28.3,6.893-6.611,20.25-29.789,25.954-36.421,5.688-6.63,8.785-21.61,11.619-28.96a178.8,178.8,0,0,1,12.014-23.631c.717-1.153,1.417-2.23,2.113-3.25a67.894,67.894,0,0,0,7.633,7.8C469.3,49.311,472.4,51.371,475.254,52.032Z" transform="translate(-263.309 -18.031)"/>
        <circle id="Ellipse_110" data-name="Ellipse 110" class="cls-15" cx="11.237" cy="11.237" r="11.237" transform="translate(105.476 44.429)"/>
        <path id="Path_276" data-name="Path 276" class="cls-24" d="M382.123,81.224s-7.043-.052-12.715,3.539" transform="translate(-254.537 -28.154)"/>
        <path id="Path_277" data-name="Path 277" class="cls-25" d="M355.611,85.488a6.87,6.87,0,0,0,1.3,3.958s-5.242,7.533-3.708,15.848" transform="translate(-250.575 -29.179)"/>
        <path id="Path_278" data-name="Path 278" class="cls-26" d="M416.239,168.048l7.87,15.927s2.8,3.715,4.762,5.907" transform="translate(-265.794 -49.023)"/>
      </g>
    </g>
  </g>
</svg>
