<?xml version="1.0" encoding="utf-8"?>
<!-- Generator: Adobe Illustrator 16.0.0, SVG Export Plug-In . SVG Version: 6.00 Build 0)  -->
<!DOCTYPE svg PUBLIC "-//W3C//DTD SVG 1.1//EN" "http://www.w3.org/Graphics/SVG/1.1/DTD/svg11.dtd">
<svg version="1.1" xmlns="http://www.w3.org/2000/svg" xmlns:xlink="http://www.w3.org/1999/xlink" x="0px" y="0px" width="500px"
	 height="500px" viewBox="0 0 500 500" enable-background="new 0 0 500 500" xml:space="preserve">
<g id="Background_Simple">
</g>
<g id="Clouds">
	<path fill="#FFFFFF" d="M311.704,128.949c-1.01-5.345-3.155-13.563-7.116-16.336c-6.05-4.235-12.101,4.84-19.361,6.05
		s4.235-22.387-8.471-26.622c-12.706-4.235-16.336,11.496-20.571,18.756c-4.235,7.261-10.286-3.025-15.731-1.21
		s-2.42,11.496-7.866,12.706c-5.445,1.21-14.521-6.051-18.756-1.815c-4.022,4.023-4.236,4.777-9.949,8.471H311.704z"/>
</g>
<g id="Trees">
</g>
<g id="Ground">
</g>
<g id="Character_2">
	<g>
		<g>
			<g>
				<defs>
					<path id="XMLID_5_" d="M211.783,292.273c0,0-2.892,7.563-5.116,12.012c-2.225,4.449-6.006,23.356-6.896,32.698
						c-0.89,9.343-2.225,21.132-2.225,21.132s-5.116,9.343-7.563,12.901c-2.447,3.559-6.006,5.561-4.004,8.008
						c2.002,2.446,6.896-0.89,10.454-2.892c3.56-2.002,4.004-5.562,6.006-6.451s6.229-0.222,5.562-6.006
						c-0.668-5.783-3.781-8.675-3.114-10.231c0.667-1.558,5.338-16.905,7.34-20.909s6.451-8.676,8.23-14.903
						c1.779-6.229,1.558-13.569,1.558-13.569s4.226-8.452,4.894-8.897C227.576,294.721,214.229,294.054,211.783,292.273z"/>
				</defs>
				<use xlink:href="#XMLID_5_"  overflow="visible" fill="#FFFFFF"/>
				<clipPath id="XMLID_10_">
					<use xlink:href="#XMLID_5_"  overflow="visible"/>
				</clipPath>
				
					<path clip-path="url(#XMLID_10_)" fill="#D9D9D9" stroke="#263238" stroke-linecap="round" stroke-linejoin="round" stroke-miterlimit="10" d="
					M211.783,292.273c0,0-2.892,7.563-5.116,12.012c-2.225,4.449-6.006,23.356-6.896,32.698c-0.89,9.343-2.225,21.132-2.225,21.132
					s-5.116,9.343-7.563,12.901c-2.447,3.559-6.006,5.561-4.004,8.008c2.002,2.446,6.896-0.89,10.454-2.892
					c3.56-2.002,4.004-5.562,6.006-6.451s6.229-0.222,5.562-6.006c-0.668-5.783-3.781-8.675-3.114-10.231
					c0.667-1.558,5.338-16.905,7.34-20.909s6.451-8.676,8.23-14.903c1.779-6.229,1.558-13.569,1.558-13.569s4.226-8.452,4.894-8.897
					C227.576,294.721,214.229,294.054,211.783,292.273z"/>
				<path opacity="0.25" clip-path="url(#XMLID_10_)" d="M208.587,300.108c1.94,1.032,5.66,2.84,7.94,2.84c3.188,0,3.188,0,3.188,0
					s2.48,5.669-1.771,15.235c-4.252,9.567-11.692,20.905-13.465,28.347c-0.986,4.144-3.621,17.08-5.763,27.729
					c1.624-1.852,2.26-3.928,3.723-4.578c2.002-0.89,6.229-0.222,5.562-6.006c-0.668-5.783-3.781-8.675-3.114-10.231
					c0.667-1.558,5.338-16.905,7.34-20.909s6.451-8.676,8.23-14.903c1.779-6.229,1.558-13.569,1.558-13.569s4.226-8.452,4.894-8.897
					c0.667-0.444-12.68-1.111-15.126-2.892C211.783,292.273,210.267,296.233,208.587,300.108z"/>
				
					<use xlink:href="#XMLID_5_"  overflow="visible" fill="none" stroke="#263238" stroke-linecap="round" stroke-linejoin="round" stroke-miterlimit="10"/>
			</g>
			<g>
				<path fill="#263238" stroke="#263238" stroke-linecap="round" stroke-linejoin="round" stroke-miterlimit="10" d="
					M185.98,379.024c2.002,2.446,6.896-0.89,10.454-2.892c3.56-2.002,4.004-5.562,6.006-6.451s6.229-0.222,5.562-6.006
					c-0.594-5.142-3.114-7.994-3.199-9.659c-0.188,0.816-0.803,2.403-2.807,4.099c-2.892,2.447-4.449,0-4.449,0
					s-5.116,9.343-7.563,12.901C187.537,374.575,183.978,376.577,185.98,379.024z"/>
				<path fill="#FFFFFF" stroke="#263238" stroke-linecap="round" stroke-linejoin="round" stroke-miterlimit="10" d="
					M208.005,363.739c-1.064,0.902-2.286,1.783-3.563,2.384c-3.781,1.779-4.671,5.116-10.01,9.342
					c-3.838,3.039-7.321,2.857-8.981,2.516c0.076,0.343,0.238,0.688,0.529,1.044c2.002,2.446,6.896-0.89,10.454-2.892
					c3.56-2.002,4.004-5.562,6.006-6.451C204.434,368.796,208.632,369.45,208.005,363.739z"/>
			</g>
		</g>
		<g>
			<g>
				<defs>
					<path id="XMLID_6_" d="M269.172,293.386l5.115,7.785c0,0,2.225,10.232,5.561,16.905c3.338,6.674,11.568,18.018,15.572,22.911
						s5.338,14.459,5.338,14.459s-2.002,4.226-0.668,7.34c1.336,3.114,5.117,5.339,5.783,8.23c0.668,2.892,4.672,9.787,7.785,9.343
						c3.115-0.445,5.117-4.449,2.67-10.232s-7.117-10.232-8.453-16.238c-1.334-6.006-5.561-30.919-9.119-38.704
						s-7.119-12.901-7.119-12.901l-3.336-13.346C288.301,288.938,275.844,295.61,269.172,293.386z"/>
				</defs>
				<use xlink:href="#XMLID_6_"  overflow="visible" fill="#FFFFFF"/>
				<clipPath id="XMLID_11_">
					<use xlink:href="#XMLID_6_"  overflow="visible"/>
				</clipPath>
				
					<path clip-path="url(#XMLID_11_)" fill="#D9D9D9" stroke="#263238" stroke-linecap="round" stroke-linejoin="round" stroke-miterlimit="10" d="
					M269.172,293.386l5.115,7.785c0,0,2.225,10.232,5.561,16.905c3.338,6.674,11.568,18.018,15.572,22.911
					s5.338,14.459,5.338,14.459s-2.002,4.226-0.668,7.34c1.336,3.114,5.117,5.339,5.783,8.23c0.668,2.892,4.672,9.787,7.785,9.343
					c3.115-0.445,5.117-4.449,2.67-10.232s-7.117-10.232-8.453-16.238c-1.334-6.006-5.561-30.919-9.119-38.704
					s-7.119-12.901-7.119-12.901l-3.336-13.346C288.301,288.938,275.844,295.61,269.172,293.386z"/>
				<path opacity="0.25" clip-path="url(#XMLID_11_)" d="M298.756,315.185c-3.559-7.785-7.119-12.901-7.119-12.901l-3.336-13.346
					c0,0-12.457,6.673-19.129,4.448l5.084,7.738c0.873,0.031,1.836,0.052,2.861,0.052c4.252,0,8.15-1.771,8.15-1.771
					s8.504,13.465,12.756,24.803c2.949,7.867,6.75,19.822,9.275,26.882C305.57,342.334,301.902,322.068,298.756,315.185z"/>
				
					<use xlink:href="#XMLID_6_"  overflow="visible" fill="none" stroke="#263238" stroke-linecap="round" stroke-linejoin="round" stroke-miterlimit="10"/>
			</g>
			<g>
				<path fill="#263238" stroke="#263238" stroke-linecap="round" stroke-linejoin="round" stroke-miterlimit="10" d="
					M316.328,370.127c-2.109-4.986-5.867-8.981-7.719-13.836c-0.387,0.993-0.908,1.905-1.623,2.491
					c-2.447,2.002-6.229-3.336-6.229-3.336s-2.002,4.226-0.668,7.34c1.336,3.114,5.117,5.339,5.783,8.23
					c0.668,2.892,4.672,9.787,7.785,9.343C316.773,379.914,318.775,375.91,316.328,370.127z"/>
				<g>
					<path fill="#FFFFFF" stroke="#263238" stroke-linecap="round" stroke-linejoin="round" stroke-miterlimit="10" d="
						M305.873,371.017c0.182,0.784,0.613,1.866,1.201,3.014c-0.121-0.263-0.229-0.526-0.311-0.789
						c-1.113-3.56-1.779-8.008-4.227-10.232c-1.289-1.172-2.205-2.834-2.785-4.148c-0.191,1.26-0.195,2.681,0.338,3.926
						C301.426,365.9,305.207,368.125,305.873,371.017z"/>
					<path fill="#FFFFFF" stroke="#263238" stroke-linecap="round" stroke-linejoin="round" stroke-miterlimit="10" d="
						M317.213,372.982c-0.262,1.868-0.818,3.974-1.996,5.152c-2.072,2.071-5.891-0.324-7.689-3.268
						c1.615,2.854,4.066,5.787,6.131,5.492C316.229,379.992,318.033,377.197,317.213,372.982z"/>
				</g>
			</g>
		</g>
		<g>
			<defs>
				<path id="XMLID_12_" d="M277.846,223.541c0,0,0.445,0.445-1.557,1.779c-2.002,1.335-6.895,2.447-5.783,4.227
					c1.113,1.779,2.225,2.669,1.334,3.336c-0.889,0.667-2.223,0.667-3.336,1.557c-1.111,0.89-4.449-9.787-4.449-9.787
					S272.285,220.649,277.846,223.541z"/>
			</defs>
			<use xlink:href="#XMLID_12_"  overflow="visible" fill="#FFFFFF"/>
			<clipPath id="XMLID_13_">
				<use xlink:href="#XMLID_12_"  overflow="visible"/>
			</clipPath>
			<path clip-path="url(#XMLID_13_)" fill="#C6FF00" d="M277.846,223.541c0,0,0.445,0.445-1.557,1.779
				c-2.002,1.335-6.895,2.447-5.783,4.227c1.113,1.779,2.225,2.669,1.334,3.336c-0.889,0.667-2.223,0.667-3.336,1.557
				c-1.111,0.89-4.449-9.787-4.449-9.787S272.285,220.649,277.846,223.541z"/>
			<path opacity="0.25" clip-path="url(#XMLID_13_)" d="M277.846,223.541c0,0,0.445,0.445-1.557,1.779
				c-2.002,1.335-6.895,2.447-5.783,4.227c1.113,1.779,2.225,2.669,1.334,3.336c-0.889,0.667-2.223,0.667-3.336,1.557
				c-1.111,0.89-4.449-9.787-4.449-9.787S272.285,220.649,277.846,223.541z"/>
			
				<use xlink:href="#XMLID_12_"  overflow="visible" fill="none" stroke="#263238" stroke-linecap="round" stroke-linejoin="round" stroke-miterlimit="10"/>
		</g>
		<g>
			<path fill="#263238" stroke="#263238" stroke-linecap="round" stroke-linejoin="round" stroke-miterlimit="10" d="
				M226.909,230.881l-2.002,11.567c0,0-8.23,17.794-11.122,26.915s-7.118,25.136-7.118,25.136s3.114,2.447,12.456,4.004
				c9.343,1.557,21.132-4.448,21.132-4.448s3.56-19.13,4.672-21.577c1.111-2.446,4.226-8.897,4.226-8.897h2.891l7.564,29.362
				c0,0,6.895,1.779,10.898,2.446s10.01,1.112,15.348-2.669c5.34-3.781,8.453-9.787,8.453-9.787s-8.453-20.02-12.234-28.25
				c-3.781-8.23-12.455-22.244-12.455-22.244l-2.67-9.12L226.909,230.881z"/>
			
				<line fill="none" stroke="#FFFFFF" stroke-linecap="round" stroke-linejoin="round" stroke-miterlimit="10" x1="227.353" y1="246.896" x2="236.696" y2="255.794"/>
			
				<line fill="none" stroke="#FFFFFF" stroke-linecap="round" stroke-linejoin="round" stroke-miterlimit="10" x1="238.712" y1="258.662" x2="240.254" y2="259.798"/>
			
				<line fill="none" stroke="#FFFFFF" stroke-linecap="round" stroke-linejoin="round" stroke-miterlimit="10" x1="227.576" y1="250.456" x2="236.933" y2="257.351"/>
			<path fill="none" stroke="#FFFFFF" stroke-linecap="round" stroke-linejoin="round" stroke-miterlimit="10" d="M235.491,293.566
				c1.285-0.478,2.579-1.052,3.874-1.737"/>
			<path fill="none" stroke="#FFFFFF" stroke-linecap="round" stroke-linejoin="round" stroke-miterlimit="10" d="M209.114,292.719
				c0,0,9.583,4.51,21.122,2.312"/>
			<path fill="none" stroke="#FFFFFF" stroke-linecap="round" stroke-linejoin="round" stroke-miterlimit="10" d="M260.496,290.717
				c0,0,15.348,9.787,32.031-8.897"/>
			
				<line fill="none" stroke="#FFFFFF" stroke-linecap="round" stroke-linejoin="round" stroke-miterlimit="10" x1="272.285" y1="240.446" x2="267.836" y2="248.898"/>
			<path fill="none" stroke="#FFFFFF" stroke-linecap="round" stroke-linejoin="round" stroke-miterlimit="10" d="M236.029,237.554
				c0,0,12.011,1.779,24.022-4.449"/>
		</g>
		<g>
			<defs>
				<path id="XMLID_4_" d="M268.391,228.25l-1.443-4.932l-40.039,7.563l-0.357,2.061c3.535,1.112,10.604,2.64,20.154,1.276
					C254.996,233.033,263.129,230.292,268.391,228.25z"/>
			</defs>
			<use xlink:href="#XMLID_4_"  overflow="visible" fill="#FFFFFF"/>
			<clipPath id="XMLID_14_">
				<use xlink:href="#XMLID_4_"  overflow="visible"/>
			</clipPath>
			
				<path clip-path="url(#XMLID_14_)" fill="#949494" stroke="#263238" stroke-linecap="round" stroke-linejoin="round" stroke-miterlimit="10" d="
				M268.391,228.25l-1.443-4.932l-40.039,7.563l-0.357,2.061c3.535,1.112,10.604,2.64,20.154,1.276
				C254.996,233.033,263.129,230.292,268.391,228.25z"/>
			
				<use xlink:href="#XMLID_4_"  overflow="visible" fill="none" stroke="#263238" stroke-linecap="round" stroke-linejoin="round" stroke-miterlimit="10"/>
		</g>
		<g>
			<g>
				<defs>
					<path id="XMLID_2_" d="M290.365,142.795c-2.092-7.952-5.176-15.627-8.662-23.063c-2.703-5.767-5.398-12.989-9.578-17.865
						c-2.668-3.114-7.563-5.561-8.674-5.116c-1.113,0.445-6.006,2.447-6.006,5.116c0,2.669,1.779,2.669,1.779,2.669
						s-0.445,3.336,0.889,4.671c1.336,1.335,8.23,0.89,8.23,0.89s2.373,3.518,3.053,5.783c1.334,4.449,2.508,5.338,3.398,13.346
						c0.889,8.008,3.781,18.907,3.781,18.907s-0.891,0.445-2.225,2.002s-9.787,10.01-9.787,10.01s-3.113,1.557-7.563,2.892
						c-2.746,0.824-5.146,1.983-6.586,2.753c-1.371-0.157-2.75-0.306-3.487-0.306c-1.557,0-12.456,2.002-12.456,2.002
						s-3.559-2.225-8.008-3.559c-4.448-1.334-7.563-2.892-7.563-2.892s-8.453-8.453-9.787-10.01
						c-1.335-1.557-2.225-2.002-2.225-2.002s2.892-10.899,3.781-18.908c0.719-6.464,2.571-13.801,6.45-19.129
						c0,0,6.896,0.445,8.23-0.89c1.335-1.335,0.89-4.671,0.89-4.671s1.78,0,1.78-2.669c0-2.669-4.895-4.671-6.006-5.116
						c-1.112-0.445-6.006,2.002-8.676,5.116c-2.669,3.114-2.446,6.229-5.116,10.677c-2.669,4.449-12.011,26.025-13.123,30.251
						c-1.112,4.226-2.447,6.673-2.225,8.675s10.899,13.569,13.568,16.683c2.67,3.114,12.901,13.791,12.901,13.791
						s3.781,18.685,4.894,25.358s0.445,25.135,0.445,25.135s12.234-2.669,23.801-4.004c11.566-1.334,24.246-5.783,25.802-5.783
						s1.557,0,1.557,0s-8.674-10.677-8.674-12.234c0-1.243,0.283-23.897,0.398-32.979c3.229-3.398,7.795-8.241,9.451-10.173
						c2.668-3.114,13.346-14.681,13.568-16.683S291.477,147.022,290.365,142.795z"/>
				</defs>
				<use xlink:href="#XMLID_2_"  overflow="visible" fill="#FFFFFF"/>
				<clipPath id="XMLID_15_">
					<use xlink:href="#XMLID_2_"  overflow="visible"/>
				</clipPath>
				
					<path clip-path="url(#XMLID_15_)" fill="#D9D9D9" stroke="#263238" stroke-linecap="round" stroke-linejoin="round" stroke-miterlimit="10" d="
					M290.365,142.795c-2.092-7.952-5.176-15.627-8.662-23.063c-2.703-5.767-5.398-12.989-9.578-17.865
					c-2.668-3.114-7.563-5.561-8.674-5.116c-1.113,0.445-6.006,2.447-6.006,5.116c0,2.669,1.779,2.669,1.779,2.669
					s-0.445,3.336,0.889,4.671c1.336,1.335,8.23,0.89,8.23,0.89s2.373,3.518,3.053,5.783c1.334,4.449,2.508,5.338,3.398,13.346
					c0.889,8.008,3.781,18.907,3.781,18.907s-0.891,0.445-2.225,2.002s-9.787,10.01-9.787,10.01s-3.113,1.557-7.563,2.892
					c-2.746,0.824-5.146,1.983-6.586,2.753c-1.371-0.157-2.75-0.306-3.487-0.306c-1.557,0-12.456,2.002-12.456,2.002
					s-3.559-2.225-8.008-3.559c-4.448-1.334-7.563-2.892-7.563-2.892s-8.453-8.453-9.787-10.01
					c-1.335-1.557-2.225-2.002-2.225-2.002s2.892-10.899,3.781-18.908c0.719-6.464,2.571-13.801,6.45-19.129
					c0,0,6.896,0.445,8.23-0.89c1.335-1.335,0.89-4.671,0.89-4.671s1.78,0,1.78-2.669c0-2.669-4.895-4.671-6.006-5.116
					c-1.112-0.445-6.006,2.002-8.676,5.116c-2.669,3.114-2.446,6.229-5.116,10.677c-2.669,4.449-12.011,26.025-13.123,30.251
					c-1.112,4.226-2.447,6.673-2.225,8.675s10.899,13.569,13.568,16.683c2.67,3.114,12.901,13.791,12.901,13.791
					s3.781,18.685,4.894,25.358s0.445,25.135,0.445,25.135s12.234-2.669,23.801-4.004c11.566-1.334,24.246-5.783,25.802-5.783
					s1.557,0,1.557,0s-8.674-10.677-8.674-12.234c0-1.243,0.283-23.897,0.398-32.979c3.229-3.398,7.795-8.241,9.451-10.173
					c2.668-3.114,13.346-14.681,13.568-16.683S291.477,147.022,290.365,142.795z"/>
				<path opacity="0.25" clip-path="url(#XMLID_15_)" d="M227.576,212.641c-0.667-3.114-1.557-21.131-2.669-26.915
					c-1.112-5.783-3.781-8.008-5.339-10.455c-1.557-2.447-6.006-6.006-11.566-12.011c-5.562-6.006-10.678-11.122-9.787-15.571
					c0.618-3.095,6.616-20.495,10.212-30.807c-3.729,7.649-10.396,23.273-11.324,26.803c-1.112,4.226-2.447,6.673-2.225,8.675
					s10.899,13.569,13.568,16.683c2.67,3.114,12.901,13.791,12.901,13.791s3.781,18.685,4.894,25.358
					c0.414,2.483,0.581,6.598,0.629,10.787C227.441,216.123,227.793,213.658,227.576,212.641z"/>
				<path opacity="0.25" clip-path="url(#XMLID_15_)" d="M289.191,150.358c0,3.337-16.238,15.349-20.02,21.577
					s-2.67,21.577-2.67,27.805c0,6.229-0.223,7.563-0.223,7.563l2.895,3.524c0.033-3.557,0.289-23.987,0.396-32.5
					c3.229-3.398,7.795-8.241,9.451-10.173c2.668-3.114,13.346-14.681,13.568-16.683s-1.113-4.449-2.225-8.675
					c-2.092-7.953-5.176-15.627-8.662-23.063c-2.703-5.767-5.398-12.989-9.578-17.865c0,0,7.057,17.128,11.283,28.472
					S289.191,147.022,289.191,150.358z"/>
				
					<use xlink:href="#XMLID_2_"  overflow="visible" fill="none" stroke="#263238" stroke-linecap="round" stroke-linejoin="round" stroke-miterlimit="10"/>
			</g>
			<g>
				<path fill="none" stroke="#263238" stroke-linecap="round" stroke-linejoin="round" stroke-miterlimit="10" d="M228.243,105.426
					c0,0-5.561-4.671-6.006-2.669c-0.444,2.002,3.337,4.671,3.337,4.671"/>
				<path fill="none" stroke="#263238" stroke-linecap="round" stroke-linejoin="round" stroke-miterlimit="10" d="M220.68,104.981
					c0,0,0.445,4.226-4.004,4.894"/>
				<polyline fill="none" stroke="#263238" stroke-linecap="round" stroke-linejoin="round" stroke-miterlimit="10" points="
					223.794,106.094 219.345,103.869 219.568,102.312 220.903,101.645 				"/>
				<path fill="none" stroke="#263238" stroke-linecap="round" stroke-linejoin="round" stroke-miterlimit="10" d="M224.217,99.074
					c0,0,0.414,2.28,0.414,3.73"/>
				<path fill="none" stroke="#263238" stroke-linecap="round" stroke-linejoin="round" stroke-miterlimit="10" d="M226.704,99.696
					c0,0,0.415,2.073,0,4.56"/>
				<path fill="none" stroke="#263238" stroke-linecap="round" stroke-linejoin="round" stroke-miterlimit="10" d="M228.984,100.732
					c0,0,0.414,2.28-1.451,3.731"/>
			</g>
			<g>
				<path fill="none" stroke="#263238" stroke-linecap="round" stroke-linejoin="round" stroke-miterlimit="10" d="M259.225,104.537
					c0,0,7.723-2.002,6.609,0.222c-1.111,2.225-4.67,2.892-4.67,2.892"/>
				<path fill="none" stroke="#263238" stroke-linecap="round" stroke-linejoin="round" stroke-miterlimit="10" d="M270.506,107.873
					c0,0-2.002-1.557-3.113-2.002c-1.113-0.445-1.336-2.002-1.336-2.002s2.447-0.445,2.447-1.557s-1.779-2.002-1.779-2.002
					l-0.223,1.112"/>
				<path fill="none" stroke="#263238" stroke-linecap="round" stroke-linejoin="round" stroke-miterlimit="10" d="M263.596,98.66
					c0,0-0.881,4.409,2.461,5.209"/>
				<path fill="none" stroke="#263238" stroke-linecap="round" stroke-linejoin="round" stroke-miterlimit="10" d="M261.109,98.867
					c0,0-0.621,3.316,1.451,4.974"/>
				<path fill="none" stroke="#263238" stroke-linecap="round" stroke-linejoin="round" stroke-miterlimit="10" d="M259.244,100.11
					c0,0-0.621,2.902,0.828,3.938"/>
			</g>
		</g>
		<g>
			<path fill="#C6FF00" stroke="#263238" stroke-linecap="round" stroke-linejoin="round" stroke-miterlimit="10" d="
				M250.487,229.324c11.566-1.334,24.246-5.783,25.802-5.783s1.557,0,1.557,0s-8.674-10.677-8.674-12.234
				c0-1.243,0.283-23.897,0.398-32.979c1.523-1.604,3.342-3.527,5.016-5.316c-2.443-0.729-5.098-2.001-6.082-4.19
				c-1.219-2.71-0.623-7.398,0.029-10.651c-1.156,1.164-1.969,1.976-1.969,1.976s-3.113,1.557-7.563,2.892
				c-2.746,0.824-5.146,1.983-6.586,2.753c-1.371-0.157-2.75-0.306-3.487-0.306c-1.557,0-12.456,2.002-12.456,2.002
				s-3.559-2.225-8.008-3.559c-4.448-1.334-7.563-2.892-7.563-2.892s-0.123-0.123-0.324-0.325c0.363,3.458,0.703,8.092,0.324,11.001
				c-0.43,3.293-3.066,4.831-4.895,5.511c2.846,3.009,5.339,5.611,5.339,5.611s3.781,18.685,4.894,25.358s0.445,25.135,0.445,25.135
				S238.92,230.659,250.487,229.324z"/>
			<g>
				<path fill="none" stroke="#263238" stroke-linecap="round" stroke-linejoin="round" stroke-miterlimit="10" d="M245.643,187.976
					c-1.833-2.066-2.497-3.139-2.497-3.139"/>
				<path fill="none" stroke="#263238" stroke-linecap="round" stroke-linejoin="round" stroke-miterlimit="10" d="M269.172,211.307
					c0,0-6.533-7.888-14.014-14.236c-2.572-2.182-4.637-4.089-6.28-5.707"/>
			</g>
		</g>
		<path fill="#263238" stroke="#263238" stroke-linecap="round" stroke-linejoin="round" stroke-miterlimit="10" d="
			M231.957,157.345c0,0-1.213-2.425-3.84-7.275c-2.627-4.851-0.404-13.339,9.499-16.572c9.902-3.234,16.167,2.829,17.582,6.871
			c1.416,4.042,0.203,8.488-0.605,10.914s-0.809,4.446-0.809,4.446s-0.404-0.606-1.818-1.617c-1.415-1.011-3.84-11.722-7.074-12.53
			c-3.233-0.809-10.105,1.01-10.711,6.063C233.574,152.696,233.574,160.376,231.957,157.345z"/>
		<g>
			<defs>
				<path id="XMLID_8_" d="M252.975,154.919c0,0,1.213-3.436,2.83-1.819s0.809,5.053-0.203,6.467
					c-1.01,1.415-1.818,0.606-2.424-1.011C252.57,156.94,252.975,154.919,252.975,154.919z"/>
			</defs>
			<use xlink:href="#XMLID_8_"  overflow="visible" fill="#FFFFFF"/>
			<clipPath id="XMLID_16_">
				<use xlink:href="#XMLID_8_"  overflow="visible"/>
			</clipPath>
			
				<path clip-path="url(#XMLID_16_)" fill="#D9D9D9" stroke="#263238" stroke-linecap="round" stroke-linejoin="round" stroke-miterlimit="10" d="
				M252.975,154.919c0,0,1.213-3.436,2.83-1.819s0.809,5.053-0.203,6.467c-1.01,1.415-1.818,0.606-2.424-1.011
				C252.57,156.94,252.975,154.919,252.975,154.919z"/>
			
				<use xlink:href="#XMLID_8_"  overflow="visible" fill="none" stroke="#263238" stroke-linecap="round" stroke-linejoin="round" stroke-miterlimit="10"/>
		</g>
		<g>
			<defs>
				<path id="XMLID_7_" d="M232.882,156.915c0,0-2.096-2.98-3.216-0.987s0.586,5.083,1.94,6.172
					c1.355,1.089,1.915,0.093,2.063-1.628C233.817,158.751,232.882,156.915,232.882,156.915z"/>
			</defs>
			<use xlink:href="#XMLID_7_"  overflow="visible" fill="#FFFFFF"/>
			<clipPath id="XMLID_17_">
				<use xlink:href="#XMLID_7_"  overflow="visible"/>
			</clipPath>
			
				<path clip-path="url(#XMLID_17_)" fill="#D9D9D9" stroke="#263238" stroke-linecap="round" stroke-linejoin="round" stroke-miterlimit="10" d="
				M232.882,156.915c0,0-2.096-2.98-3.216-0.987s0.586,5.083,1.94,6.172c1.355,1.089,1.915,0.093,2.063-1.628
				C233.817,158.751,232.882,156.915,232.882,156.915z"/>
			
				<use xlink:href="#XMLID_7_"  overflow="visible" fill="none" stroke="#263238" stroke-linecap="round" stroke-linejoin="round" stroke-miterlimit="10"/>
		</g>
		<path fill="#FFFFFF" stroke="#263238" stroke-linecap="round" stroke-linejoin="round" stroke-miterlimit="10" d="
			M235.594,166.439c0,0-0.202,4.042,0.606,8.69c0.809,4.648,1.819,7.68,1.819,7.68l7.275-6.872l9.095,4.851
			c0,0,1.414-9.297-1.416-13.339c-2.829-4.042-12.125-4.446-14.551-3.031C235.999,165.833,235.594,166.439,235.594,166.439z"/>
		<g>
			<defs>
				<path id="XMLID_3_" d="M238.222,168.46c0,0,5.254,13.743,8.084,12.732c2.829-1.01,3.638-13.136,3.638-13.136
					S241.253,169.875,238.222,168.46z"/>
			</defs>
			<use xlink:href="#XMLID_3_"  overflow="visible" fill="#FFFFFF"/>
			<clipPath id="XMLID_18_">
				<use xlink:href="#XMLID_3_"  overflow="visible"/>
			</clipPath>
			
				<path clip-path="url(#XMLID_18_)" fill="#D9D9D9" stroke="#263238" stroke-linecap="round" stroke-linejoin="round" stroke-miterlimit="10" d="
				M238.222,168.46c0,0,5.254,13.743,8.084,12.732c2.829-1.01,3.638-13.136,3.638-13.136S241.253,169.875,238.222,168.46z"/>
			<path opacity="0.25" clip-path="url(#XMLID_18_)" d="M238.222,168.46c0,0,5.254,13.743,8.084,12.732
				c2.829-1.01,3.638-13.136,3.638-13.136S241.253,169.875,238.222,168.46z"/>
			
				<use xlink:href="#XMLID_3_"  overflow="visible" fill="none" stroke="#263238" stroke-linecap="round" stroke-linejoin="round" stroke-miterlimit="10"/>
		</g>
		<g>
			<g>
				<defs>
					<path id="XMLID_1_" d="M231.35,151.484c0,0,1.011,8.893,2.224,12.935c1.212,4.042,5.902,7.711,12.168,6.701
						c6.264-1.011,8.446-10.137,8.446-10.743c0-0.606-0.404-11.52-2.83-15.562c-2.424-4.042-7.073-7.882-13.54-4.851
						C231.35,142.996,230.744,149.261,231.35,151.484z"/>
				</defs>
				<use xlink:href="#XMLID_1_"  overflow="visible" fill="#FFFFFF"/>
				<clipPath id="XMLID_19_">
					<use xlink:href="#XMLID_1_"  overflow="visible"/>
				</clipPath>
				
					<path clip-path="url(#XMLID_19_)" fill="#D9D9D9" stroke="#263238" stroke-linecap="round" stroke-linejoin="round" stroke-miterlimit="10" d="
					M231.35,151.484c0,0,1.011,8.893,2.224,12.935c1.212,4.042,5.902,7.711,12.168,6.701c6.264-1.011,8.446-10.137,8.446-10.743
					c0-0.606-0.404-11.52-2.83-15.562c-2.424-4.042-7.073-7.882-13.54-4.851C231.35,142.996,230.744,149.261,231.35,151.484z"/>
				<path opacity="0.25" clip-path="url(#XMLID_19_)" d="M254.188,160.376c0-0.606-0.404-11.52-2.83-15.562
					c-0.47-0.785-1.027-1.56-1.663-2.281c0.598,2.519,3.655,16.093,1.236,20.727c-2.669,5.116-8.452,5.561-13.791,2.892
					c-3.957-1.979-5.103-13.608-5.431-19.496c-0.652,1.987-0.634,3.822-0.359,4.828c0,0,1.011,8.893,2.224,12.935
					c1.212,4.042,5.902,7.711,12.168,6.701C252.006,170.109,254.188,160.982,254.188,160.376z"/>
				
					<use xlink:href="#XMLID_1_"  overflow="visible" fill="none" stroke="#263238" stroke-linecap="round" stroke-linejoin="round" stroke-miterlimit="10"/>
			</g>
			<path fill="#FFFFFF" stroke="#263238" stroke-linecap="round" stroke-linejoin="round" stroke-miterlimit="10" d="
				M237.097,156.683c0,0,5.467,1.94,10.229-2.469c0.899,0.305,0.563,5.729-4.409,6.525
				C240.197,161.175,237.625,159.329,237.097,156.683z"/>
			<path fill="none" stroke="#263238" stroke-linecap="round" stroke-linejoin="round" stroke-miterlimit="10" d="M239.963,151.874
				c0,0-1.233,1.728-0.617,2.344c0.617,0.617,3.084,0.74,4.318-0.617c1.233-1.357-0.74-2.591-0.74-2.591"/>
			<path fill="none" stroke="#263238" stroke-linecap="round" stroke-linejoin="round" stroke-miterlimit="10" d="M235.19,152.696
				c0,0,0.606-2.021,3.84-2.021"/>
			<path fill="none" stroke="#263238" stroke-linecap="round" stroke-linejoin="round" stroke-miterlimit="10" d="M244.689,149.867
				c0,0,2.118-2.356,4.745-0.538"/>
			<path fill="none" stroke="#263238" stroke-width="2" stroke-linecap="round" stroke-linejoin="round" stroke-miterlimit="10" d="
				M238.625,146.633c0,0-4.62-0.923-5.191,3.268"/>
			<path fill="none" stroke="#263238" stroke-width="2" stroke-linecap="round" stroke-linejoin="round" stroke-miterlimit="10" d="
				M243.53,146.091c0,0,3.254-2.639,6.285,0.19"/>
		</g>
	</g>
</g>
<g id="Character_1">
</g>
</svg>
