<?xml version="1.0" encoding="utf-8"?>
<!-- Generator: Adobe Illustrator 16.0.0, SVG Export Plug-In . SVG Version: 6.00 Build 0)  -->
<!DOCTYPE svg PUBLIC "-//W3C//DTD SVG 1.1//EN" "http://www.w3.org/Graphics/SVG/1.1/DTD/svg11.dtd">
<svg version="1.1" xmlns="http://www.w3.org/2000/svg" xmlns:xlink="http://www.w3.org/1999/xlink" x="0px" y="0px" width="750px"
	 height="250px" viewBox="0 0 750 250" enable-background="new 0 0 750 250" xml:space="preserve">
<g id="BACKGROUND" display="none">
	<rect display="inline" fill="#EBEFF2" width="750" height="500"/>
</g>
<g id="OBJECTS">
	<g>
		<g>
			<g>
				<g>
					
						<rect x="66.747" y="37.659" fill="none" stroke="#D1D7DB" stroke-width="0.6976" stroke-miterlimit="10" width="106.246" height="83.31"/>
					
						<rect x="58.672" y="26.221" fill="none" stroke="#D1D7DB" stroke-width="0.6976" stroke-miterlimit="10" width="122.4" height="11.475"/>
					
						<line fill="none" stroke="#D1D7DB" stroke-width="0.6976" stroke-miterlimit="10" x1="119.302" y1="37.695" x2="119.302" y2="120.679"/>
				</g>
			</g>
			<g>
				<rect x="243.776" y="29.829" fill="#FFFFFF" width="87.083" height="80.083"/>
				<rect x="254.234" y="44.131" fill="#F9CE80" width="8.529" height="8.529"/>
				<rect x="270.687" y="44.131" fill="#F9CE80" width="8.53" height="8.529"/>
				<rect x="309.643" y="81.539" fill="#4CAF52" width="8.53" height="8.53"/>
				<rect x="255.546" y="61.718" fill="#4CAF52" width="8.529" height="8.53"/>
				<rect x="268.237" y="74.276" fill="#F9CE80" width="8.53" height="8.53"/>
				<rect x="299.188" y="57.355" fill="#F9CE80" width="8.53" height="8.53"/>
				<line fill="none" stroke="#EBEFF2" stroke-miterlimit="10" x1="287.139" y1="39.865" x2="287.139" y2="100.262"/>
			</g>
		</g>
		<g>
			<g>
				<g>
					<path fill="#111D36" d="M156.589,164.98h36.22c2.471,0,4.247-2.417,3.547-4.829l-17.297-59.622
						c-0.464-1.601-1.908-2.698-3.547-2.698h-36.22c-2.471,0-4.247,2.418-3.547,4.829l17.296,59.623
						C153.506,163.883,154.95,164.98,156.589,164.98z"/>
					<path fill="#C1CCFF" d="M161.573,164.98h31.549c2.471,0,4.247-2.417,3.547-4.829l-17.296-59.622
						c-0.464-1.601-1.908-2.698-3.547-2.698h-31.549c-2.471,0-4.247,2.418-3.547,4.829l17.296,59.623
						C158.49,163.883,159.934,164.98,161.573,164.98z"/>
					<g>
						<rect x="161.53" y="210.307" fill="#111D36" width="33.984" height="3.261"/>
						<circle fill="#111D36" cx="195.514" cy="213.421" r="3.107"/>
						<rect x="176.8" y="164.477" fill="#111D36" width="3.26" height="47.165"/>
						<circle fill="#111D36" cx="161.53" cy="213.421" r="3.107"/>
					</g>
					<path fill="#111D36" d="M157.608,164.98h38.336c1.788,0,3.238-1.449,3.238-3.237l0,0c0-1.788-1.45-3.237-3.238-3.237h-38.336
						c-1.788,0-3.237,1.449-3.237,3.237l0,0C154.371,163.531,155.821,164.98,157.608,164.98z"/>
				</g>
				<g>
					<g>
						<g>
							<g>
								<path fill="#D48066" d="M173.195,197.893l6.585-9.946l7.198,4.455l-4.854,7.683c0,0,7.203,8.188,7.172,8.457
									s0.989,1.655-1.07,1.419S173.57,201.959,173.195,197.893z"/>
								<g>
									<g>
										<path fill="#000103" d="M183.765,199.03l8.627,10.817c0.64,0.787,0.661,1.965,0.052,2.848l0,0l-23.95-9.906l6.201-7.667
											L183.765,199.03z"/>
										<polygon fill="#FEFEFF" points="167.042,205.203 191.665,215.389 192.726,212.812 168.103,202.626 										"/>
									</g>
								</g>
							</g>
							<path fill="#E8413D" d="M194.646,135.91l0.521,15.254l-19.246,38.125l14.043,6.18l32.815-43.115
								c4.919-6.464,0.464-15.784-7.656-16.015L194.646,135.91z"/>
						</g>
						<g>
							<g>
								<path fill="#D48066" d="M219.418,193.088l5.84,12.852c0,0,0.758,2.06,5.201,2.709c4.442,0.65,17.336,1.95,15.711-0.758
									l-12.926-5.177l-5.888-14.002L219.418,193.088z"/>
								<g>
									<g>
										<path fill="#000103" d="M233.762,202.76l13.215,5.238c0.973,0.376,1.577,1.394,1.462,2.462l0,0l-26.695,3.036l1.831-9.724
											L233.762,202.76z"/>
										
											<rect x="221.377" y="211.976" transform="matrix(-0.9936 0.113 -0.113 -0.9936 492.973 398.8069)" fill="#FEFEFF" width="27.623" height="2.786"/>
									</g>
								</g>
							</g>
							<path fill="#FA584E" d="M162.541,135.91c0,0,0.354,3.103,0.25,5.34c-0.554,11.791,5.909,17.256,15.883,17.581h19.742
								l21.266,38.647l16.777-1.171l-23.866-53.473c-1.635-3.663-5.145-3.458-9.144-3.767L162.541,135.91z"/>
						</g>
					</g>
					<g>
						<g>
							<polygon fill="#BC634B" points="201.862,110.629 209.049,130.75 201.452,130.75 192.007,111.143 							"/>
							<path fill="#FEFEFF" d="M196.172,95.566c0,0,4.546,0.638,8.219,18.157l-13.901,0.243L196.172,95.566z"/>
						</g>
						<g>
							<path fill="#FEFEFF" d="M190.823,93.322l5.349,2.244c0.988,0.434,1.643,1.385,1.704,2.462
								c0.271,4.775,0.294,15.804-2.3,24.972l-0.931,8.406l-30.378-0.656l-0.378-37.951l1.993-6.445l9.2,2.29L190.823,93.322z"/>
							<path fill="none" stroke="#EBEFF2" stroke-width="0.7619" stroke-miterlimit="10" d="M196.8,113.856
								c0,0,1.833-4.101,1.259-10.945"/>
						</g>
						<g>
							<g>
								<path fill="#D48066" d="M179.848,119.274l29.594,1.228l1.125,5.013l-29.879,3.396c-4.756,0.541-9.223-2.378-10.639-6.95
									l-0.609-1.97L179.848,119.274z"/>
								<path fill="#D48066" d="M209.442,120.502c0,0,3.771-0.163,8.6,4.656l3.56,4.122l-4.946,0.416l-7.213-4.598V120.502z"/>
							</g>
							<g>
								<polygon fill="#D48066" points="175.902,105.565 179.848,119.274 169.44,119.99 162.79,101.269 								"/>
								<g>
									<path fill="#FEFEFF" d="M171.179,90.798l4.723,14.768l-13.613,0.461l-3.164-11.773c-0.948-3.527,1.307-7.115,4.897-7.79
										l0,0C167.164,85.872,170.248,87.739,171.179,90.798z"/>
									
										<line fill="none" stroke="#EBEFF2" stroke-width="0.7619" stroke-miterlimit="10" x1="175.902" y1="105.565" x2="173.553" y2="98.219"/>
								</g>
							</g>
						</g>
					</g>
					<g>
						<g>
							<path fill="#D48066" d="M179.026,91.249l2.797-10.715c0,0,1.754,0.635,3.367,1.142s2.974-0.039,3.396,0.966
								c0.01,0.022,1.476-1.038,1.476-1.038l-2.03,11.98c-0.014,0.125-0.015,0.25-0.01,0.374l-9.058-2.386
								C178.991,91.467,179.014,91.359,179.026,91.249z"/>
						</g>
						<path fill="#A54A35" d="M189.13,87.106c0,0-6.042,0.359-7.459-7.459l8.369,2.176L189.13,87.106z"/>
						<circle fill="#BC634B" cx="196.474" cy="76.018" r="3.027"/>
						<path fill="#D48066" d="M180.146,67.265c-0.424,3.858-0.241,7.249,0.049,9.673c0.283,2.372,1.618,4.155,3.612,5.692
							l0.363,0.279c2.11,1.626,5.029,1.979,7.471,0.904l0,0c2.463-1.083,4.278-2.67,5.05-5.098c1.404-4.416,2.053-9.407,2.053-9.407
							s1.934-9.646-8.117-10.559C180.576,57.836,180.146,67.265,180.146,67.265z"/>
						<g>
							<circle fill="#000103" cx="194.646" cy="74.738" r="0.93"/>
							<circle fill="#000103" cx="186.598" cy="73.71" r="0.93"/>
							
								<path fill="none" stroke="#000000" stroke-width="0.4684" stroke-linecap="round" stroke-linejoin="round" stroke-miterlimit="10" d="
								M191.535,75.835l0.127,1.877c-0.035,0.314-0.338,0.52-0.626,0.425l-0.589-0.298"/>
							<path fill="#000103" d="M189.923,70.948l-5.75,0.829c0,0,0.427-1.54,2.776-1.858C189.3,69.601,189.923,70.948,189.923,70.948
								z"/>
							<path fill="#000103" d="M192.667,71.394l5,2.012c0,0-0.062-1.595-2.11-2.396C193.51,70.207,192.667,71.394,192.667,71.394z"
								/>
							
								<path fill="none" stroke="#000000" stroke-width="0.4684" stroke-linecap="round" stroke-linejoin="round" stroke-miterlimit="10" d="
								M191.434,79.79c0,0-2.132,0.648-3.658-0.91"/>
						</g>
						<g>
							<circle fill="#D48066" cx="178.779" cy="73.609" r="3.027"/>
							
								<path fill="none" stroke="#000000" stroke-width="0.4684" stroke-linecap="round" stroke-linejoin="round" stroke-miterlimit="10" d="
								M177.632,72.46c0,0,2.295-0.421,2.295,1.92"/>
						</g>
						<path fill="#D48066" d="M190.823,93.322l-15.741-4.679c0,0,0.285,5.468,9.635,7.547c1.462,0.325,2.996,0.366,4.449,0.005
							C190.304,95.913,190.66,94.28,190.823,93.322z"/>
					</g>
				</g>
			</g>
			<g>
				<g>
					<rect x="284.037" y="134.6" fill="#111D36" width="3.281" height="81.454"/>
					<rect x="236.716" y="134.6" fill="#111D36" width="3.282" height="81.454"/>
					<rect x="168.226" y="134.6" fill="#111D36" width="3.282" height="81.454"/>
					<rect x="120.906" y="134.6" fill="#111D36" width="3.282" height="81.454"/>
					<rect x="152.983" y="130.75" fill="#24385B" width="145.089" height="7.7"/>
					<rect x="110.785" y="130.75" fill="#111D36" width="42.198" height="7.7"/>
				</g>
				<g>
					<path fill="#162123" d="M201.962,131.034h23.715v-2.676h-23.715c-0.739,0-1.338,0.6-1.338,1.338l0,0
						C200.624,130.436,201.223,131.034,201.962,131.034z"/>
					<g>
						<path fill="#273237" d="M222.555,131.034h34.047c1.81,0,3.398-1.206,3.883-2.95l6.716-24.126
							c0.247-0.885-0.419-1.762-1.338-1.762h-34.45c-0.752,0-1.41,0.508-1.602,1.235L222.555,131.034z"/>
						<circle fill="#FFFFFF" cx="246.65" cy="117.17" r="2.973"/>
					</g>
				</g>
				
					<line fill="none" stroke="#213033" stroke-width="1.0158" stroke-miterlimit="10" x1="338.727" y1="215.996" x2="61.31" y2="215.996"/>
			</g>
		</g>
	</g>
	<path fill="#FF413D" d="M180.688,73.405c0,0-0.962-5.798-1.908-9.602s1.913-8.137,5.733-7.137s14.043,2.334,16.015,1.167
		s2.139,1.666,0.972,2.333s1.449-0.834,2.891,0.833s-0.724,3.668-2.558,3.834c0,0,1.333,1.666,0.333,2.166s-2.513,0.668-6.59-0.666
		s-7.8-0.5-7.8-0.5l-4.823-2.03l2.902,2.03c0,0,0.145,1.166-0.98,1.604s-3.204,0.263-3.204,0.263L180.688,73.405"/>
</g>
<g id="DESIGNED_BY_FREEPIK">
</g>
</svg>
